<?xml version="1.0" encoding="UTF-8"?>
<!DOCTYPE svg PUBLIC "-//W3C//DTD SVG 1.1//EN" "http://www.w3.org/Graphics/SVG/1.1/DTD/svg11.dtd">
<svg xmlns="http://www.w3.org/2000/svg" version="1.1" width="500px" height="500px" style="shape-rendering:geometricPrecision; text-rendering:geometricPrecision; image-rendering:optimizeQuality; fill-rule:evenodd; clip-rule:evenodd" xmlns:xlink="http://www.w3.org/1999/xlink">
<g><path style="opacity:1" fill="#fee2b2" d="M -0.5,-0.5 C 122.833,-0.5 246.167,-0.5 369.5,-0.5C 369.787,1.12071 370.787,2.12071 372.5,2.5C 373.386,1.67504 373.719,0.675044 373.5,-0.5C 415.5,-0.5 457.5,-0.5 499.5,-0.5C 499.5,85.5 499.5,171.5 499.5,257.5C 496.149,258.184 494.149,260.184 493.5,263.5C 495.685,263.296 497.685,262.63 499.5,261.5C 499.5,262.5 499.5,263.5 499.5,264.5C 498.601,265.472 497.434,266.138 496,266.5C 493.686,264.832 491.186,263.666 488.5,263C 490.124,264.117 491.124,265.617 491.5,267.5C 490.925,272.65 490.591,277.983 490.5,283.5C 487.612,283.78 486.112,282.447 486,279.5C 485.727,281.101 485.227,282.601 484.5,284C 482.782,284.346 481.115,284.846 479.5,285.5C 478.614,284.675 478.281,283.675 478.5,282.5C 475.207,284.096 471.874,285.762 468.5,287.5C 466.889,290.22 466.056,293.22 466,296.5C 464.309,299.131 463.142,298.797 462.5,295.5C 460.972,296.861 459.305,298.028 457.5,299C 457.034,300.299 457.034,301.799 457.5,303.5C 456.178,303.67 455.011,303.337 454,302.5C 453.689,303.742 454.189,304.742 455.5,305.5C 452.833,306.833 450.833,308.833 449.5,311.5C 446.866,310.484 444.2,310.484 441.5,311.5C 441.815,315.371 441.482,319.038 440.5,322.5C 440.717,316.768 440.217,311.101 439,305.5C 438.29,304.027 437.124,303.36 435.5,303.5C 435.631,300.633 434.297,298.967 431.5,298.5C 431.5,298.167 431.5,297.833 431.5,297.5C 430.455,294.455 428.455,292.455 425.5,291.5C 425.517,293.565 425.85,295.565 426.5,297.5C 424.5,294.833 422.5,292.167 420.5,289.5C 420.62,288.414 421.287,287.747 422.5,287.5C 423.833,288.167 425.167,288.833 426.5,289.5C 427.167,289.167 427.833,288.833 428.5,288.5C 425.801,285.803 422.801,283.47 419.5,281.5C 410.861,282.14 402.195,282.807 393.5,283.5C 390.95,284.604 388.617,285.937 386.5,287.5C 382.246,289.11 378.246,291.11 374.5,293.5C 374.784,295.415 374.451,297.081 373.5,298.5C 373.643,296.738 373.309,295.071 372.5,293.5C 370.142,291.976 368.309,289.976 367,287.5C 366.029,288.198 364.863,288.198 363.5,287.5C 362.287,287.747 361.62,288.414 361.5,289.5C 360.323,286.158 357.989,283.991 354.5,283C 346.445,282.178 338.445,282.512 330.5,284C 328.937,284.759 327.937,285.926 327.5,287.5C 322.557,288.466 318.89,291.133 316.5,295.5C 316.649,294.448 316.483,293.448 316,292.5C 314.013,291.782 312.179,290.782 310.5,289.5C 309.571,290.689 309.238,292.022 309.5,293.5C 308.112,288.692 304.779,285.859 299.5,285C 292.833,284.333 286.167,284.333 279.5,285C 273.089,286.579 266.756,288.079 260.5,289.5C 258.447,289.598 256.78,288.931 255.5,287.5C 256.833,287.5 258.167,287.5 259.5,287.5C 260.636,284.575 262.302,281.908 264.5,279.5C 265.549,276.92 266.216,274.254 266.5,271.5C 270.912,270.256 272.579,267.256 271.5,262.5C 271.167,260.5 270.833,258.5 270.5,256.5C 269.264,255.754 267.93,255.421 266.5,255.5C 266.167,255.5 265.833,255.5 265.5,255.5C 265.5,254.5 265.5,253.5 265.5,252.5C 264.178,252.33 263.011,252.663 262,253.5C 261.861,256.445 260.694,258.779 258.5,260.5C 259.492,257.221 259.659,253.888 259,250.5C 257.989,249.663 256.822,249.33 255.5,249.5C 247.677,248.344 239.677,248.177 231.5,249C 230.667,249.833 229.833,250.667 229,251.5C 227.21,258.041 226.377,264.708 226.5,271.5C 226.646,276.976 224.979,281.643 221.5,285.5C 220.566,286.568 220.232,287.901 220.5,289.5C 221.833,289.5 223.167,289.5 224.5,289.5C 229.5,289.5 234.5,289.5 239.5,289.5C 239.5,289.833 239.5,290.167 239.5,290.5C 237.5,290.5 235.5,290.5 233.5,290.5C 233.651,294.314 235.651,295.981 239.5,295.5C 239.5,296.5 239.5,297.5 239.5,298.5C 245.496,298.386 251.163,297.053 256.5,294.5C 256.137,293.817 255.804,293.15 255.5,292.5C 256.791,292.263 257.791,292.596 258.5,293.5C 260.488,296.415 262.821,299.082 265.5,301.5C 266.708,305.043 266.208,308.376 264,311.5C 263.503,314.146 263.336,316.813 263.5,319.5C 262.5,319.5 261.5,319.5 260.5,319.5C 259.833,324.833 259.167,330.167 258.5,335.5C 257.5,335.5 256.5,335.5 255.5,335.5C 255.5,338.167 255.5,340.833 255.5,343.5C 254.5,343.5 253.5,343.5 252.5,343.5C 251.371,351.838 249.371,359.838 246.5,367.5C 240.495,367.949 238.162,371.282 239.5,377.5C 258.167,377.5 276.833,377.5 295.5,377.5C 295.5,378.167 295.167,378.5 294.5,378.5C 279.163,378.333 263.83,378.5 248.5,379C 248.043,379.414 247.709,379.914 247.5,380.5C 248.602,381.176 249.602,381.842 250.5,382.5C 252.042,383.163 253.709,383.83 255.5,384.5C 273.154,385.5 290.821,385.833 308.5,385.5C 269.662,386.731 230.662,386.731 191.5,385.5C 192.183,383.824 193.517,383.157 195.5,383.5C 195.137,377.784 194.47,372.117 193.5,366.5C 193.691,362.82 194.025,359.153 194.5,355.5C 202.176,334.1 208.842,312.434 214.5,290.5C 214.5,289.5 214.5,288.5 214.5,287.5C 215.082,283.167 217.082,279.667 220.5,277C 221.766,276.691 222.933,276.191 224,275.5C 224.498,272.518 224.665,269.518 224.5,266.5C 222.027,266.264 220.36,264.931 219.5,262.5C 218.311,261.571 216.978,261.238 215.5,261.5C 215.771,263.38 215.104,264.713 213.5,265.5C 213.5,263.5 213.5,261.5 213.5,259.5C 194.509,258.245 175.509,258.245 156.5,259.5C 155.063,261.021 154.396,262.855 154.5,265C 154.952,268.506 155.952,271.84 157.5,275C 156.44,283.004 154.774,290.837 152.5,298.5C 151.596,299.209 151.263,300.209 151.5,301.5C 150.691,303.292 150.191,305.292 150,307.5C 149.34,309.324 148.173,310.657 146.5,311.5C 146.703,309.956 147.37,308.622 148.5,307.5C 148.167,307.167 147.833,306.833 147.5,306.5C 144.059,307.462 140.726,308.628 137.5,310C 141.438,312.061 141.438,314.227 137.5,316.5C 137.522,315.005 137.189,313.338 136.5,311.5C 135.549,310.674 134.549,310.508 133.5,311C 134.5,311.833 135.5,312.667 136.5,313.5C 135.376,314.914 134.376,316.414 133.5,318C 130.214,317.891 127.047,317.058 124,315.5C 122.833,315.833 121.667,316.167 120.5,316.5C 119.833,319.5 119.167,322.5 118.5,325.5C 116.392,326.944 114.059,327.61 111.5,327.5C 111.5,328.833 111.5,330.167 111.5,331.5C 112.552,331.351 113.552,331.517 114.5,332C 112.067,333.13 109.734,334.296 107.5,335.5C 108.167,333.167 108.833,330.833 109.5,328.5C 108.127,328.343 106.793,328.51 105.5,329C 105.957,329.414 106.291,329.914 106.5,330.5C 104.812,334.258 102.145,335.591 98.5,334.5C 95.457,335.472 93.7903,337.472 93.5,340.5C 93.5,338.833 93.5,337.167 93.5,335.5C 88.4116,336.058 84.4116,338.558 81.5,343C 82.5196,344.556 83.853,345.722 85.5,346.5C 86.7133,346.253 87.38,345.586 87.5,344.5C 89.0618,344.267 90.3951,343.6 91.5,342.5C 92.782,343.708 92.782,345.042 91.5,346.5C 89.3281,348.859 86.8281,349.525 84,348.5C 82.6136,349.729 81.1136,350.729 79.5,351.5C 79.5,350.5 79.5,349.5 79.5,348.5C 76.9616,349.043 74.6282,350.043 72.5,351.5C 69.9592,352.649 67.4592,352.649 65,351.5C 64.5172,352.448 64.3505,353.448 64.5,354.5C 62.5714,354.231 60.9047,354.731 59.5,356C 60.9561,356.423 61.4561,357.256 61,358.5C 57.7816,359.681 55.2816,361.681 53.5,364.5C 53.7472,365.713 54.4138,366.38 55.5,366.5C 55.8417,367.338 56.5084,367.672 57.5,367.5C 57.528,369.582 56.8613,371.416 55.5,373C 52.9925,373.093 50.8259,373.926 49,375.5C 48.6667,375.167 48.3333,374.833 48,374.5C 45.9307,375.264 43.764,375.764 41.5,376C 39.672,378.942 37.0053,380.109 33.5,379.5C 33.7148,377.821 33.0481,376.821 31.5,376.5C 32.9303,375.463 34.597,374.796 36.5,374.5C 37.404,373.791 37.7373,372.791 37.5,371.5C 35.2646,371.205 33.2646,371.539 31.5,372.5C 30.5,372.5 29.5,372.5 28.5,372.5C 28.5,373.5 28.5,374.5 28.5,375.5C 26.4862,375.392 24.8195,376.058 23.5,377.5C 23.5,376.5 23.5,375.5 23.5,374.5C 20.8333,374.5 18.1667,374.5 15.5,374.5C 13.2362,375.219 10.9029,375.552 8.5,375.5C 5.5,375.5 2.5,375.5 -0.5,375.5C -0.5,250.167 -0.5,124.833 -0.5,-0.5 Z"/></g>
<g><path style="opacity:1" fill="#497a7b" d="M 369.5,-0.5 C 370.833,-0.5 372.167,-0.5 373.5,-0.5C 373.719,0.675044 373.386,1.67504 372.5,2.5C 370.787,2.12071 369.787,1.12071 369.5,-0.5 Z"/></g>
<g><path style="opacity:1" fill="#44787e" d="M 381.5,15.5 C 380.92,13.2512 379.587,11.5846 377.5,10.5C 377.281,9.32496 377.614,8.32496 378.5,7.5C 382.301,9.4346 384.134,12.4346 384,16.5C 383.329,15.7476 382.496,15.4142 381.5,15.5 Z"/></g>
<g><path style="opacity:1" fill="#abc0b7" d="M 377.5,10.5 C 379.587,11.5846 380.92,13.2512 381.5,15.5C 379.413,14.4154 378.08,12.7488 377.5,10.5 Z"/></g>
<g><path style="opacity:1" fill="#588787" d="M 389.5,21.5 C 393.602,23.2662 396.269,26.2662 397.5,30.5C 392.327,29.8655 389.661,26.8655 389.5,21.5 Z"/></g>
<g><path style="opacity:1" fill="#8daca2" d="M 223.5,26.5 C 221.491,28.0652 219.157,29.0652 216.5,29.5C 218.32,27.5516 220.654,26.5516 223.5,26.5 Z"/></g>
<g><path style="opacity:1" fill="#47797e" d="M 232.5,26.5 C 236.177,26.3379 239.511,27.3379 242.5,29.5C 239.295,29.8225 235.962,29.8225 232.5,29.5C 231.167,28.5 231.167,27.5 232.5,26.5 Z"/></g>
<g><path style="opacity:1" fill="#44797e" d="M 223.5,26.5 C 226.125,27.4577 226.125,28.6243 223.5,30C 221.162,30.8366 218.828,31.6699 216.5,32.5C 214.07,31.6533 214.07,30.6533 216.5,29.5C 219.157,29.0652 221.491,28.0652 223.5,26.5 Z"/></g>
<g><path style="opacity:1" fill="#ebdeba" d="M 232.5,26.5 C 236.681,25.0902 240.847,25.4236 245,27.5C 244.952,29.926 245.119,32.2593 245.5,34.5C 244.68,36.1112 243.346,36.7778 241.5,36.5C 241.719,37.675 241.386,38.675 240.5,39.5C 240.167,38.8333 239.833,38.1667 239.5,37.5C 240.732,35.9501 241.232,34.2834 241,32.5C 237.975,31.8064 235.142,30.8064 232.5,29.5C 235.962,29.8225 239.295,29.8225 242.5,29.5C 239.511,27.3379 236.177,26.3379 232.5,26.5 Z"/></g>
<g><path style="opacity:1" fill="#5a8584" d="M 249.5,31.5 C 254.232,32.5964 257.565,35.2631 259.5,39.5C 254.689,38.6893 251.355,36.0227 249.5,31.5 Z"/></g>
<g><path style="opacity:1" fill="#d8d6bc" d="M 403.5,35.5 C 407.997,36.8376 409.831,39.8376 409,44.5C 404.597,45.8734 402.431,44.2067 402.5,39.5C 403.837,40.3149 404.837,41.4815 405.5,43C 406.448,43.4828 407.448,43.6495 408.5,43.5C 408.649,42.448 408.483,41.448 408,40.5C 406.293,38.9625 404.793,37.2959 403.5,35.5 Z"/></g>
<g><path style="opacity:1" fill="#4b7b7e" d="M 207.5,35.5 C 208.5,35.5 209.5,35.5 210.5,35.5C 209.044,39.065 207.044,42.3983 204.5,45.5C 203.386,44.277 203.219,42.9437 204,41.5C 205.022,39.3358 206.189,37.3358 207.5,35.5 Z"/></g>
<g><path style="opacity:1" fill="#49807d" d="M 403.5,35.5 C 404.793,37.2959 406.293,38.9625 408,40.5C 408.483,41.448 408.649,42.448 408.5,43.5C 407.448,43.6495 406.448,43.4828 405.5,43C 404.837,41.4815 403.837,40.3149 402.5,39.5C 401.069,38.2196 400.402,36.5529 400.5,34.5C 401.791,34.2627 402.791,34.596 403.5,35.5 Z"/></g>
<g><path style="opacity:1" fill="#4a7d7f" d="M 271.5,48.5 C 272.562,49.5754 272.562,50.5754 271.5,51.5C 269.814,50.1431 268.148,48.8098 266.5,47.5C 264.273,46.5994 263.273,44.9328 263.5,42.5C 267.015,43.3453 269.681,45.3453 271.5,48.5 Z"/></g>
<g><path style="opacity:1" fill="#588687" d="M 411.5,49.5 C 412.833,49.5 414.167,49.5 415.5,49.5C 416.023,52.0277 417.023,54.361 418.5,56.5C 418.167,57.1667 417.833,57.8333 417.5,58.5C 413.905,56.5703 411.905,53.5703 411.5,49.5 Z"/></g>
<g><path style="opacity:1" fill="#e1dbb8" d="M 266.5,47.5 C 268.148,48.8098 269.814,50.1431 271.5,51.5C 272.562,50.5754 272.562,49.5754 271.5,48.5C 272.5,48.5 273.5,48.5 274.5,48.5C 274.5,50.1667 274.5,51.8333 274.5,53.5C 276.781,53.0773 278.448,53.744 279.5,55.5C 278.5,55.5 277.5,55.5 276.5,55.5C 277.382,58.385 278.716,61.0517 280.5,63.5C 276.589,61.2582 274.256,57.9248 273.5,53.5C 269.918,53.0453 267.585,51.0453 266.5,47.5 Z"/></g>
<g><path style="opacity:1" fill="#51858a" d="M 199.5,63.5 C 198.539,61.7354 198.205,59.7354 198.5,57.5C 199.15,55.5648 199.483,53.5648 199.5,51.5C 200.5,51.5 201.5,51.5 202.5,51.5C 202.048,55.1629 201.548,58.8296 201,62.5C 200.617,63.056 200.117,63.3893 199.5,63.5 Z"/></g>
<g><path style="opacity:1" fill="#437781" d="M 279.5,55.5 C 280.816,57.8225 282.149,60.1558 283.5,62.5C 283.124,64.8034 282.124,65.1368 280.5,63.5C 278.716,61.0517 277.382,58.385 276.5,55.5C 277.5,55.5 278.5,55.5 279.5,55.5 Z"/></g>
<g><path style="opacity:1" fill="#4f7e81" d="M 426.5,71.5 C 426.728,73.3547 426.061,74.1881 424.5,74C 423.432,71.5619 422.098,69.3952 420.5,67.5C 420.5,66.5 420.5,65.5 420.5,64.5C 423.858,65.5339 425.858,67.8673 426.5,71.5 Z"/></g>
<g><path style="opacity:1" fill="#f7e2b9" d="M 198.5,57.5 C 198.205,59.7354 198.539,61.7354 199.5,63.5C 199.151,66.0448 199.984,68.0448 202,69.5C 202.333,68.8333 202.667,68.1667 203,67.5C 203.71,68.9733 204.876,69.6399 206.5,69.5C 207.728,67.9558 207.894,69.6225 207,74.5C 206.586,74.0426 206.086,73.7093 205.5,73.5C 204.327,75.9791 204.327,78.4791 205.5,81C 205.167,81.5 204.833,82 204.5,82.5C 203.264,81.7542 201.93,81.4208 200.5,81.5C 201.625,84.904 203.625,87.7373 206.5,90C 206.298,92.5865 205.964,95.0865 205.5,97.5C 204.492,94.1563 203.492,90.8229 202.5,87.5C 201.5,87.5 200.5,87.5 199.5,87.5C 199.5,88.8333 199.5,90.1667 199.5,91.5C 198.894,88.8327 198.061,86.166 197,83.5C 195.818,87.0323 194.152,90.3657 192,93.5C 192.201,83.9135 192.034,74.2468 191.5,64.5C 192.325,63.6143 193.325,63.281 194.5,63.5C 194.084,69.9522 194.584,76.2855 196,82.5C 196.286,73.9629 197.12,65.6296 198.5,57.5 Z"/></g>
<g><path style="opacity:1" fill="#467d80" d="M 197.5,69.5 C 198.5,69.5 199.5,69.5 200.5,69.5C 200.823,73.226 200.489,76.8927 199.5,80.5C 198.914,80.2907 198.414,79.9574 198,79.5C 197.502,76.1832 197.335,72.8499 197.5,69.5 Z"/></g>
<g><path style="opacity:1" fill="#e8deb8" d="M 299.5,85.5 C 298.503,85.4701 297.836,85.9701 297.5,87C 298.673,89.6495 300.006,92.1495 301.5,94.5C 300.542,94.0472 299.708,93.3805 299,92.5C 298.517,93.448 298.351,94.448 298.5,95.5C 295.104,95.3671 294.771,94.3671 297.5,92.5C 295.985,89.3967 294.318,86.3967 292.5,83.5C 293.025,82.8076 293.692,82.3076 294.5,82C 290.541,82.2087 288.874,80.3754 289.5,76.5C 285.25,75.4418 283.916,72.9418 285.5,69C 287.167,68.3333 288.833,68.3333 290.5,69C 293.298,72.4458 295.632,76.1124 297.5,80C 296.833,81 296.167,82 295.5,83C 297.32,83.2004 298.653,84.0337 299.5,85.5 Z"/></g>
<g><path style="opacity:1" fill="#46787b" d="M 289.5,76.5 C 287.752,74.8401 287.252,72.8401 288,70.5C 290.735,72.7319 292.902,75.3986 294.5,78.5C 294,78.8333 293.5,79.1667 293,79.5C 291.826,78.4558 290.659,77.4558 289.5,76.5 Z"/></g>
<g><path style="opacity:1" fill="#4a7f88" d="M 430.5,81.5 C 431.423,85.0641 431.756,88.7307 431.5,92.5C 429.338,89.8966 428.005,86.73 427.5,83C 427.682,80.4219 428.682,79.9219 430.5,81.5 Z"/></g>
<g><path style="opacity:1" fill="#fbe8c4" d="M 165.5,95.5 C 165.976,99.3785 164.976,102.712 162.5,105.5C 162.284,102.568 162.951,99.9017 164.5,97.5C 164.072,94.5708 162.405,92.7375 159.5,92C 151.35,91.0161 143.35,91.5161 135.5,93.5C 134.566,101.349 133.233,109.015 131.5,116.5C 131.644,109.208 131.644,102.041 131.5,95C 132.5,94 133.5,93 134.5,92C 143.781,90.4806 153.114,90.1473 162.5,91C 164.439,91.9078 165.439,93.4078 165.5,95.5 Z"/></g>
<g><path style="opacity:1" fill="#42797e" d="M 299.5,85.5 C 302.615,88.2527 303.615,91.586 302.5,95.5C 301.893,95.3764 301.56,95.0431 301.5,94.5C 300.006,92.1495 298.673,89.6495 297.5,87C 297.836,85.9701 298.503,85.4701 299.5,85.5 Z"/></g>
<g><path style="opacity:1" fill="#e9dfba" d="M 420.5,67.5 C 422.098,69.3952 423.432,71.5619 424.5,74C 426.061,74.1881 426.728,73.3547 426.5,71.5C 428.144,71.7135 429.644,71.3802 431,70.5C 431.667,71.8333 431.667,73.1667 431,74.5C 430.111,73.1118 429.611,73.2785 429.5,75C 429.95,76.2853 430.617,77.452 431.5,78.5C 430.873,79.4168 430.539,80.4168 430.5,81.5C 428.682,79.9219 427.682,80.4219 427.5,83C 428.005,86.73 429.338,89.8966 431.5,92.5C 432.922,92.7496 433.922,93.583 434.5,95C 433.536,97.9226 433.536,100.923 434.5,104C 433.947,106.986 432.614,109.486 430.5,111.5C 429.702,111.043 429.369,110.376 429.5,109.5C 428.837,107.527 428.504,105.361 428.5,103C 428.628,100.293 429.295,97.7927 430.5,95.5C 429.311,94.5713 427.978,94.238 426.5,94.5C 426.628,96.6547 426.128,98.6547 425,100.5C 424.833,99.6667 424.667,98.8333 424.5,98C 425.666,91.4185 427,84.9185 428.5,78.5C 427.833,78.1667 427.167,77.8333 426.5,77.5C 424.666,78.7545 422.666,79.4211 420.5,79.5C 420.48,77.857 421.147,76.5237 422.5,75.5C 421.215,72.9795 420.548,70.3128 420.5,67.5 Z"/></g>
<g><path style="opacity:1" fill="#4f8085" d="M 205.5,97.5 C 204.749,98.5735 203.749,98.7401 202.5,98C 201.269,95.834 200.269,93.6674 199.5,91.5C 199.5,90.1667 199.5,88.8333 199.5,87.5C 200.5,87.5 201.5,87.5 202.5,87.5C 203.492,90.8229 204.492,94.1563 205.5,97.5 Z"/></g>
<g><path style="opacity:1" fill="#f6f1e7" d="M 162.5,105.5 C 162.5,106.167 162.5,106.833 162.5,107.5C 160.738,108.262 159.738,109.596 159.5,111.5C 154.485,116.65 150.652,122.65 148,129.5C 146.141,130.579 144.641,131.912 143.5,133.5C 140.833,133.5 138.167,133.5 135.5,133.5C 131.93,134.107 129.263,132.94 127.5,130C 128.41,125.354 129.744,120.854 131.5,116.5C 133.233,109.015 134.566,101.349 135.5,93.5C 143.35,91.5161 151.35,91.0161 159.5,92C 162.405,92.7375 164.072,94.5708 164.5,97.5C 162.951,99.9017 162.284,102.568 162.5,105.5 Z"/></g>
<g><path style="opacity:1" fill="#fdd07c" d="M 169.5,95.5 C 170.947,96.6222 171.947,98.1222 172.5,100C 173.448,100.483 174.448,100.649 175.5,100.5C 175.666,105.179 175.499,109.845 175,114.5C 174,115.5 173,116.5 172,117.5C 171.045,121.224 169.545,124.557 167.5,127.5C 166.5,127.5 165.5,127.5 164.5,127.5C 164.5,128.5 164.5,129.5 164.5,130.5C 162.308,134.097 159.308,136.931 155.5,139C 151.5,139.667 147.5,139.667 143.5,139C 142.244,138.583 141.577,137.75 141.5,136.5C 147.588,137.746 152.588,136.079 156.5,131.5C 160.293,123.618 163.793,115.618 167,107.5C 170.721,104.194 171.554,100.194 169.5,95.5 Z"/></g>
<g><path style="opacity:1" fill="#f9eedb" d="M 119.5,105.5 C 119.167,107.5 118.833,109.5 118.5,111.5C 116.446,111.365 114.779,112.032 113.5,113.5C 113.096,112.244 112.429,111.077 111.5,110C 111.833,109.5 112.167,109 112.5,108.5C 115.93,109.742 117.263,108.409 116.5,104.5C 98.1871,103.401 79.8537,103.234 61.5,104C 60.565,106.381 60.2317,108.881 60.5,111.5C 59.3659,109.034 59.1993,106.367 60,103.5C 61.0674,102.809 62.2341,102.309 63.5,102C 81.8333,101.333 100.167,101.333 118.5,102C 119.337,103.011 119.67,104.178 119.5,105.5 Z"/></g>
<g><path style="opacity:1" fill="#f6c568" d="M 165.5,95.5 C 165.833,95.5 166.167,95.5 166.5,95.5C 166.664,98.1873 166.497,100.854 166,103.5C 165.502,105.544 164.335,106.878 162.5,107.5C 162.5,106.833 162.5,106.167 162.5,105.5C 164.976,102.712 165.976,99.3785 165.5,95.5 Z"/></g>
<g><path style="opacity:1" fill="#c1ceb8" d="M 309.5,100.5 C 308.503,100.47 307.836,100.97 307.5,102C 309.07,104.059 310.403,106.226 311.5,108.5C 308.985,106.818 306.985,104.652 305.5,102C 306.289,99.5716 307.623,99.0716 309.5,100.5 Z"/></g>
<g><path style="opacity:1" fill="#4f807e" d="M 309.5,100.5 C 312.806,102.767 314.14,105.767 313.5,109.5C 312.817,109.137 312.15,108.804 311.5,108.5C 310.403,106.226 309.07,104.059 307.5,102C 307.836,100.97 308.503,100.47 309.5,100.5 Z"/></g>
<g><path style="opacity:1" fill="#45777f" d="M 429.5,109.5 C 429.5,105.833 429.5,102.167 429.5,98.5C 430.5,98.5 431.5,98.5 432.5,98.5C 432.664,101.187 432.497,103.854 432,106.5C 431.764,108.119 430.931,109.119 429.5,109.5 Z"/></g>
<g><path style="opacity:1" fill="#f6f1e8" d="M 113.5,113.5 C 113.167,113.5 112.833,113.5 112.5,113.5C 111.178,113.33 110.011,113.663 109,114.5C 105.311,121.002 103.477,128.002 103.5,135.5C 101.718,139.629 100.718,143.962 100.5,148.5C 98.3387,153.599 96.672,158.932 95.5,164.5C 94.2502,164.577 93.4169,165.244 93,166.5C 92.502,169.482 92.3354,172.482 92.5,175.5C 91.5489,176.919 91.2155,178.585 91.5,180.5C 88.6112,183.491 87.2779,187.158 87.5,191.5C 85.0813,194.972 84.0813,198.972 84.5,203.5C 84.5286,206.269 85.1952,208.603 86.5,210.5C 87.4013,211.29 88.0679,212.29 88.5,213.5C 88.7678,215.099 88.4345,216.432 87.5,217.5C 85.4885,218.228 83.4885,219.062 81.5,220C 65.6613,220.169 49.9946,220.669 34.5,221.5C 32.567,221.271 30.9003,220.438 29.5,219C 28.9032,217.938 28.5698,216.772 28.5,215.5C 30.0596,210.606 33.3929,207.94 38.5,207.5C 42.0832,194.718 45.2499,181.718 48,168.5C 49.3333,167.833 50.3333,166.833 51,165.5C 53.5424,154.694 56.5424,144.027 60,133.5C 61.7708,126.194 61.9374,118.861 60.5,111.5C 60.2317,108.881 60.565,106.381 61.5,104C 79.8537,103.234 98.1871,103.401 116.5,104.5C 117.263,108.409 115.93,109.742 112.5,108.5C 112.167,109 111.833,109.5 111.5,110C 112.429,111.077 113.096,112.244 113.5,113.5 Z"/></g>
<g><path style="opacity:1" fill="#528283" d="M 206.5,104.5 C 211.027,106.063 213.36,109.397 213.5,114.5C 212.5,114.5 211.5,114.5 210.5,114.5C 208.771,111.4 207.438,108.066 206.5,104.5 Z"/></g>
<g><path style="opacity:1" fill="#fbc358" d="M 125.5,108.5 C 124.997,113.749 122.33,117.415 117.5,119.5C 117.751,117.83 118.418,116.33 119.5,115C 116.843,114.825 114.176,114.992 111.5,115.5C 111.833,114.833 112.167,114.167 112.5,113.5C 112.833,113.5 113.167,113.5 113.5,113.5C 114.779,112.032 116.446,111.365 118.5,111.5C 118.833,109.5 119.167,107.5 119.5,105.5C 122.778,103.819 124.778,104.819 125.5,108.5 Z"/></g>
<g><path style="opacity:1" fill="#e5e2bf" d="M 426.5,127.5 C 427.699,123.901 428.699,120.235 429.5,116.5C 428.325,116.281 427.325,116.614 426.5,117.5C 426.058,118.739 425.391,119.739 424.5,120.5C 424.194,116.303 426.194,114.303 430.5,114.5C 430.436,118.22 429.936,121.886 429,125.5C 428.583,126.756 427.75,127.423 426.5,127.5 Z"/></g>
<g><path style="opacity:1" fill="#feecc7" d="M 112.5,113.5 C 112.167,114.167 111.833,114.833 111.5,115.5C 110.269,116.718 109.102,118.051 108,119.5C 106.81,125.071 105.31,130.404 103.5,135.5C 103.477,128.002 105.311,121.002 109,114.5C 110.011,113.663 111.178,113.33 112.5,113.5 Z"/></g>
<g><path style="opacity:1" fill="#4a8181" d="M 220.5,114.5 C 222.465,114.948 222.798,115.948 221.5,117.5C 219.016,119.483 216.683,121.65 214.5,124C 213.552,124.483 212.552,124.649 211.5,124.5C 211.351,123.448 211.517,122.448 212,121.5C 215.023,119.302 217.856,116.969 220.5,114.5 Z"/></g>
<g><path style="opacity:1" fill="#4d817d" d="M 320.5,113.5 C 323.073,115.91 325.073,118.743 326.5,122C 326.167,122.5 325.833,123 325.5,123.5C 323.481,121.81 321.481,120.144 319.5,118.5C 318.498,116.989 317.831,115.322 317.5,113.5C 318.5,113.5 319.5,113.5 320.5,113.5 Z"/></g>
<g><path style="opacity:1" fill="#4a7e84" d="M 426.5,127.5 C 425.5,127.5 424.5,127.5 423.5,127.5C 423.674,125.139 424.007,122.806 424.5,120.5C 425.391,119.739 426.058,118.739 426.5,117.5C 427.325,116.614 428.325,116.281 429.5,116.5C 428.699,120.235 427.699,123.901 426.5,127.5 Z"/></g>
<g><path style="opacity:1" fill="#efe3bf" d="M 320.5,113.5 C 322.09,113.628 323.423,114.295 324.5,115.5C 326.272,117.941 327.606,120.608 328.5,123.5C 330.078,124.298 331.744,124.798 333.5,125C 336.221,127.415 338.887,129.915 341.5,132.5C 342.731,133.651 342.731,134.817 341.5,136C 339.866,136.494 338.199,136.66 336.5,136.5C 333.916,134.422 331.416,132.088 329,129.5C 328.51,128.207 328.343,126.873 328.5,125.5C 325.927,125.148 323.594,125.648 321.5,127C 324.202,127.912 325.869,129.746 326.5,132.5C 324.302,131.986 322.302,130.986 320.5,129.5C 319.702,129.043 319.369,128.376 319.5,127.5C 319.904,126.244 320.571,125.077 321.5,124C 320.68,122.2 320.014,120.366 319.5,118.5C 321.481,120.144 323.481,121.81 325.5,123.5C 325.833,123 326.167,122.5 326.5,122C 325.073,118.743 323.073,115.91 320.5,113.5 Z"/></g>
<g><path style="opacity:1" fill="#fddf9f" d="M 336.5,136.5 C 336.833,137.833 337.167,139.167 337.5,140.5C 336.167,139.5 334.833,138.5 333.5,137.5C 332.5,134.833 331.5,134.833 330.5,137.5C 329.13,135.828 327.797,134.161 326.5,132.5C 325.869,129.746 324.202,127.912 321.5,127C 323.594,125.648 325.927,125.148 328.5,125.5C 328.343,126.873 328.51,128.207 329,129.5C 331.416,132.088 333.916,134.422 336.5,136.5 Z"/></g>
<g><path style="opacity:1" fill="#fcbe47" d="M 166.5,95.5 C 167.5,95.5 168.5,95.5 169.5,95.5C 171.554,100.194 170.721,104.194 167,107.5C 163.793,115.618 160.293,123.618 156.5,131.5C 152.588,136.079 147.588,137.746 141.5,136.5C 140.833,136.5 140.167,136.5 139.5,136.5C 137.027,136.912 135.694,135.912 135.5,133.5C 138.167,133.5 140.833,133.5 143.5,133.5C 146.195,133.067 148.362,131.734 150,129.5C 150.57,126.067 151.903,123.067 154,120.5C 157.371,118.423 159.204,115.423 159.5,111.5C 159.738,109.596 160.738,108.262 162.5,107.5C 164.335,106.878 165.502,105.544 166,103.5C 166.497,100.854 166.664,98.1873 166.5,95.5 Z"/></g>
<g><path style="opacity:1" fill="#f6f1e8" d="M 215.5,137.5 C 215.247,139.827 215.914,141.827 217.5,143.5C 219.288,142.717 220.288,141.384 220.5,139.5C 222.309,137.901 223.642,135.901 224.5,133.5C 227.499,130.987 230.833,129.154 234.5,128C 243.518,127.168 252.518,127.335 261.5,128.5C 264.215,130.548 266.548,132.882 268.5,135.5C 269.222,136.551 270.222,137.218 271.5,137.5C 271.5,138.5 271.5,139.5 271.5,140.5C 271.833,142.5 272.167,144.5 272.5,146.5C 274.973,146.912 276.306,145.912 276.5,143.5C 276.833,143.5 277.167,143.5 277.5,143.5C 278.304,140.508 279.804,137.841 282,135.5C 283.667,134.833 285.333,134.167 287,133.5C 287.483,132.552 287.649,131.552 287.5,130.5C 290.346,130.97 292.679,130.137 294.5,128C 302.827,127.5 311.16,127.334 319.5,127.5C 319.369,128.376 319.702,129.043 320.5,129.5C 322.302,130.986 324.302,131.986 326.5,132.5C 327.797,134.161 329.13,135.828 330.5,137.5C 332.345,144.659 333.011,151.992 332.5,159.5C 332.167,159.5 331.833,159.5 331.5,159.5C 330.13,162.619 329.13,165.952 328.5,169.5C 328.167,171.5 327.833,173.5 327.5,175.5C 325.744,176.552 325.077,178.219 325.5,180.5C 324.162,185.844 322.829,191.177 321.5,196.5C 320.199,197.884 320.199,199.384 321.5,201C 324.192,201.43 326.859,201.263 329.5,200.5C 329.5,202.833 329.5,205.167 329.5,207.5C 328.326,208.514 327.66,209.847 327.5,211.5C 324.622,212.562 322.622,214.562 321.5,217.5C 319.712,218.36 318.045,219.36 316.5,220.5C 305.88,222.944 295.213,223.111 284.5,221C 282.63,218.96 280.63,217.127 278.5,215.5C 277.38,212.635 276.047,209.968 274.5,207.5C 274.309,202.101 274.809,196.767 276,191.5C 278.612,184.494 281.112,177.494 283.5,170.5C 284.117,170.389 284.617,170.056 285,169.5C 285.832,166.004 286.665,162.504 287.5,159C 287.431,157.014 286.765,155.514 285.5,154.5C 279.975,152.334 275.975,154.001 273.5,159.5C 271.968,160.677 270.468,162.011 269,163.5C 268.358,167.491 267.858,171.491 267.5,175.5C 266.549,176.919 266.216,178.585 266.5,180.5C 263.242,183.369 261.909,187.036 262.5,191.5C 261.596,192.209 261.263,193.209 261.5,194.5C 260.145,199.219 260.145,201.886 261.5,202.5C 264.365,202.945 266.865,202.278 269,200.5C 269.483,201.448 269.649,202.448 269.5,203.5C 269.5,204.833 269.5,206.167 269.5,207.5C 268.196,208.987 267.03,210.654 266,212.5C 262.273,215.405 258.773,218.405 255.5,221.5C 253.833,221.5 252.167,221.5 250.5,221.5C 241.518,222.528 232.518,222.528 223.5,221.5C 223.5,220.5 223.5,219.5 223.5,218.5C 222.178,218.67 221.011,218.337 220,217.5C 218.98,213.831 217.313,210.497 215,207.5C 214.678,202.036 215.178,196.703 216.5,191.5C 220.777,180.508 224.777,169.341 228.5,158C 228.325,156.342 227.658,155.009 226.5,154C 223.961,153.204 221.628,153.371 219.5,154.5C 216.827,156.193 214.493,158.359 212.5,161C 211.313,163.724 210.647,166.557 210.5,169.5C 208.926,171.102 208.259,173.102 208.5,175.5C 207.566,176.568 207.232,177.901 207.5,179.5C 204.273,186.763 201.606,194.429 199.5,202.5C 198.359,205.64 198.192,208.973 199,212.5C 201.556,213.219 202.723,214.886 202.5,217.5C 200.833,217.5 199.167,217.5 197.5,217.5C 197.5,218.5 197.5,219.5 197.5,220.5C 179.466,220.793 161.466,220.46 143.5,219.5C 143.5,217.5 143.5,215.5 143.5,213.5C 144.552,213.649 145.552,213.483 146.5,213C 147.848,210.487 149.848,208.653 152.5,207.5C 154.045,202.203 155.378,196.87 156.5,191.5C 157.5,191.5 158.5,191.5 159.5,191.5C 159.335,188.482 159.502,185.482 160,182.5C 160.667,181.833 161.333,181.167 162,180.5C 162.904,173.309 164.404,166.309 166.5,159.5C 167.5,159.5 168.5,159.5 169.5,159.5C 169.833,154.167 170.167,148.833 170.5,143.5C 164.787,141.103 164.121,137.603 168.5,133C 171.909,131.26 175.576,130.26 179.5,130C 180.167,129.333 180.833,128.667 181.5,128C 190.16,127.5 198.827,127.334 207.5,127.5C 209.19,131.509 211.856,134.842 215.5,137.5 Z"/></g>
<g><path style="opacity:1" fill="#4c797f" d="M 330.5,127.5 C 333.14,127.954 335.473,129.121 337.5,131C 339.421,132.241 339.754,133.741 338.5,135.5C 334.862,133.705 332.196,131.038 330.5,127.5 Z"/></g>
<g><path style="opacity:1" fill="#f8d692" d="M 159.5,111.5 C 159.204,115.423 157.371,118.423 154,120.5C 151.903,123.067 150.57,126.067 150,129.5C 148.362,131.734 146.195,133.067 143.5,133.5C 144.641,131.912 146.141,130.579 148,129.5C 150.652,122.65 154.485,116.65 159.5,111.5 Z"/></g>
<g><path style="opacity:1" fill="#fbd486" d="M 277.5,143.5 C 277.167,143.5 276.833,143.5 276.5,143.5C 276.415,141.071 275.415,139.071 273.5,137.5C 272.743,136.227 272.077,136.227 271.5,137.5C 270.222,137.218 269.222,136.551 268.5,135.5C 268.5,134.5 268.5,133.5 268.5,132.5C 275.036,133.227 278.036,136.894 277.5,143.5 Z"/></g>
<g><path style="opacity:1" fill="#48797e" d="M 418.5,131.5 C 419.5,131.5 420.5,131.5 421.5,131.5C 420.33,135.512 417.83,138.512 414,140.5C 413.5,140.167 413,139.833 412.5,139.5C 414.934,137.079 416.934,134.412 418.5,131.5 Z"/></g>
<g><path style="opacity:1" fill="#fac25b" d="M 220.5,139.5 C 219.292,140.234 217.959,140.567 216.5,140.5C 216.737,139.209 216.404,138.209 215.5,137.5C 214.962,135.883 214.629,134.216 214.5,132.5C 218.638,132.973 220.638,135.307 220.5,139.5 Z"/></g>
<g><path style="opacity:1" fill="#a1b7aa" d="M 351.5,140.5 C 349.906,140.08 348.406,139.414 347,138.5C 345.97,138.836 345.47,139.503 345.5,140.5C 344.596,139.791 344.263,138.791 344.5,137.5C 347.631,136.908 349.964,137.908 351.5,140.5 Z"/></g>
<g><path style="opacity:1" fill="#fcda98" d="M 164.5,130.5 C 164.327,133.179 163.327,135.513 161.5,137.5C 156.055,141.198 150.055,142.364 143.5,141C 140.899,140.08 138.232,139.413 135.5,139C 137.167,138.667 138.833,138.333 140.5,138C 139.944,137.617 139.611,137.117 139.5,136.5C 140.167,136.5 140.833,136.5 141.5,136.5C 141.577,137.75 142.244,138.583 143.5,139C 147.5,139.667 151.5,139.667 155.5,139C 159.308,136.931 162.308,134.097 164.5,130.5 Z"/></g>
<g><path style="opacity:1" fill="#f9bf48" d="M 276.5,143.5 C 275.5,143.5 274.5,143.5 273.5,143.5C 273.715,141.821 273.048,140.821 271.5,140.5C 271.5,139.5 271.5,138.5 271.5,137.5C 272.077,136.227 272.743,136.227 273.5,137.5C 275.415,139.071 276.415,141.071 276.5,143.5 Z"/></g>
<g><path style="opacity:1" fill="#497b86" d="M 351.5,140.5 C 352.568,141.434 353.901,141.768 355.5,141.5C 355.5,142.5 355.5,143.5 355.5,144.5C 351.525,144.514 348.192,143.181 345.5,140.5C 345.47,139.503 345.97,138.836 347,138.5C 348.406,139.414 349.906,140.08 351.5,140.5 Z"/></g>
<g><path style="opacity:1" fill="#f5d091" d="M 215.5,137.5 C 216.404,138.209 216.737,139.209 216.5,140.5C 217.959,140.567 219.292,140.234 220.5,139.5C 220.288,141.384 219.288,142.717 217.5,143.5C 215.914,141.827 215.247,139.827 215.5,137.5 Z"/></g>
<g><path style="opacity:1" fill="#f3d075" d="M 271.5,140.5 C 273.048,140.821 273.715,141.821 273.5,143.5C 274.5,143.5 275.5,143.5 276.5,143.5C 276.306,145.912 274.973,146.912 272.5,146.5C 272.167,144.5 271.833,142.5 271.5,140.5 Z"/></g>
<g><path style="opacity:1" fill="#fdd387" d="M 129.5,116.5 C 129.579,117.93 129.246,119.264 128.5,120.5C 126.027,122.061 124.027,124.061 122.5,126.5C 121.675,127.386 120.675,127.719 119.5,127.5C 117.085,136.317 115.419,145.317 114.5,154.5C 112.467,157.191 110.467,159.858 108.5,162.5C 107.349,157.834 107.349,153.167 108.5,148.5C 110.111,145.78 110.944,142.78 111,139.5C 111.333,142.167 111.667,144.833 112,147.5C 114.23,141.474 116.063,135.307 117.5,129C 117.095,128.055 116.428,127.388 115.5,127C 118.073,125.429 120.406,123.596 122.5,121.5C 124.071,120.691 125.738,120.357 127.5,120.5C 127.229,118.62 127.896,117.287 129.5,116.5 Z"/></g>
<g><path style="opacity:1" fill="#447d87" d="M 401.5,143.5 C 409.109,143.813 409.109,145.313 401.5,148C 399.741,148.798 398.074,148.631 396.5,147.5C 398.015,145.918 399.681,144.584 401.5,143.5 Z"/></g>
<g><path style="opacity:1" fill="#f8c86e" d="M 333.5,137.5 C 332.203,138.849 332.37,140.182 334,141.5C 334.167,144.5 334.333,147.5 334.5,150.5C 334.483,153.913 333.816,156.913 332.5,159.5C 333.011,151.992 332.345,144.659 330.5,137.5C 331.5,134.833 332.5,134.833 333.5,137.5 Z"/></g>
<g><path style="opacity:1" fill="#528284" d="M 372.5,150.5 C 369.794,150.425 367.127,150.092 364.5,149.5C 363.791,148.596 362.791,148.263 361.5,148.5C 361.5,147.5 361.5,146.5 361.5,145.5C 365.085,146.583 368.751,147.249 372.5,147.5C 372.5,148.5 372.5,149.5 372.5,150.5 Z"/></g>
<g><path style="opacity:1" fill="#e3debe" d="M 378.5,151.5 C 376.565,150.85 374.565,150.517 372.5,150.5C 372.5,149.5 372.5,148.5 372.5,147.5C 368.751,147.249 365.085,146.583 361.5,145.5C 361.5,146.5 361.5,147.5 361.5,148.5C 362.791,148.263 363.791,148.596 364.5,149.5C 360.5,150.167 358.833,148.5 359.5,144.5C 365.298,143.874 370.631,144.874 375.5,147.5C 380.133,146.447 384.799,146.281 389.5,147C 391.527,148.396 391.86,150.062 390.5,152C 386.311,152.812 382.311,152.645 378.5,151.5 Z"/></g>
<g><path style="opacity:1" fill="#447b84" d="M 378.5,151.5 C 378.5,150.5 378.5,149.5 378.5,148.5C 382.167,148.5 385.833,148.5 389.5,148.5C 389.5,149.5 389.5,150.5 389.5,151.5C 385.833,151.5 382.167,151.5 378.5,151.5 Z"/></g>
<g><path style="opacity:1" fill="#fcbe45" d="M 117.5,119.5 C 116.504,119.414 115.671,119.748 115,120.5C 114.261,122.221 113.427,123.887 112.5,125.5C 110.441,137.199 107.441,148.533 103.5,159.5C 102.696,161.189 101.696,162.855 100.5,164.5C 99.3881,159.171 99.3881,153.838 100.5,148.5C 100.718,143.962 101.718,139.629 103.5,135.5C 105.31,130.404 106.81,125.071 108,119.5C 109.102,118.051 110.269,116.718 111.5,115.5C 114.176,114.992 116.843,114.825 119.5,115C 118.418,116.33 117.751,117.83 117.5,119.5 Z"/></g>
<g><path style="opacity:1" fill="#f8d490" d="M 285.5,154.5 C 283.473,154.338 281.473,154.505 279.5,155C 278.944,155.383 278.611,155.883 278.5,156.5C 276.589,157.075 274.922,158.075 273.5,159.5C 275.975,154.001 279.975,152.334 285.5,154.5 Z"/></g>
<g><path style="opacity:1" fill="#fdd182" d="M 337.5,140.5 C 341.173,142.252 343.34,145.252 344,149.5C 344.865,158.262 344.365,166.929 342.5,175.5C 341.5,175.5 340.5,175.5 339.5,175.5C 338.159,184.512 336.825,193.512 335.5,202.5C 334.262,201.588 332.928,201.421 331.5,202C 330.891,203.948 330.224,205.782 329.5,207.5C 329.5,205.167 329.5,202.833 329.5,200.5C 326.859,201.263 324.192,201.43 321.5,201C 320.199,199.384 320.199,197.884 321.5,196.5C 321.147,198.635 321.98,199.968 324,200.5C 326.117,198.968 327.784,196.968 329,194.5C 331.669,185.778 334.335,177.111 337,168.5C 339.925,159.112 340.091,149.778 337.5,140.5 Z"/></g>
<g><path style="opacity:1" fill="#f9c358" d="M 100.5,148.5 C 99.3881,153.838 99.3881,159.171 100.5,164.5C 101.696,162.855 102.696,161.189 103.5,159.5C 102.637,165.257 100.97,170.59 98.5,175.5C 98.4595,172.119 98.7929,168.786 99.5,165.5C 98.0413,165.433 96.7079,165.766 95.5,166.5C 95.5,165.833 95.5,165.167 95.5,164.5C 96.672,158.932 98.3387,153.599 100.5,148.5 Z"/></g>
<g><path style="opacity:1" fill="#fde5bd" d="M 273.5,159.5 C 270.915,164.661 268.915,169.994 267.5,175.5C 267.858,171.491 268.358,167.491 269,163.5C 270.468,162.011 271.968,160.677 273.5,159.5 Z"/></g>
<g><path style="opacity:1" fill="#fee0ad" d="M 331.5,159.5 C 331.68,163.286 330.68,166.619 328.5,169.5C 329.13,165.952 330.13,162.619 331.5,159.5 Z"/></g>
<g><path style="opacity:1" fill="#fbe7c2" d="M 95.5,164.5 C 95.5,165.167 95.5,165.833 95.5,166.5C 94.1827,169.484 93.1827,172.484 92.5,175.5C 92.3354,172.482 92.502,169.482 93,166.5C 93.4169,165.244 94.2502,164.577 95.5,164.5 Z"/></g>
<g><path style="opacity:1" fill="#fdce7a" d="M 285.5,154.5 C 286.765,155.514 287.431,157.014 287.5,159C 286.665,162.504 285.832,166.004 285,169.5C 284.617,170.056 284.117,170.389 283.5,170.5C 281.75,171.742 280.083,173.242 278.5,175C 279.423,177.048 278.923,178.881 277,180.5C 276.374,178.009 275.541,178.009 274.5,180.5C 272.963,185.16 272.463,189.827 273,194.5C 271.989,195.337 270.822,195.67 269.5,195.5C 270.976,184.832 273.809,174.499 278,164.5C 279.4,161.098 281.567,158.264 284.5,156C 282.455,155.51 280.455,155.677 278.5,156.5C 278.611,155.883 278.944,155.383 279.5,155C 281.473,154.505 283.473,154.338 285.5,154.5 Z"/></g>
<g><path style="opacity:1" fill="#f3ce8b" d="M 210.5,169.5 C 210.741,171.898 210.074,173.898 208.5,175.5C 208.259,173.102 208.926,171.102 210.5,169.5 Z"/></g>
<g><path style="opacity:1" fill="#fcbe44" d="M 219.5,154.5 C 221.527,154.338 223.527,154.505 225.5,155C 225.957,155.414 226.291,155.914 226.5,156.5C 223.239,158.481 220.739,161.147 219,164.5C 215.714,172.362 213.214,180.529 211.5,189C 211.316,190.376 210.649,191.209 209.5,191.5C 206.727,197.089 205.06,203.089 204.5,209.5C 201.535,209.27 200.202,207.603 200.5,204.5C 203.656,196.496 205.989,188.162 207.5,179.5C 207.232,177.901 207.566,176.568 208.5,175.5C 210.074,173.898 210.741,171.898 210.5,169.5C 210.647,166.557 211.313,163.724 212.5,161C 214.493,158.359 216.827,156.193 219.5,154.5 Z"/></g>
<g><path style="opacity:1" fill="#fbbe49" d="M 269.5,195.5 C 268.326,196.514 267.66,197.847 267.5,199.5C 265.565,200.15 263.565,200.483 261.5,200.5C 261.5,198.5 261.5,196.5 261.5,194.5C 261.263,193.209 261.596,192.209 262.5,191.5C 264.062,188.018 265.395,184.352 266.5,180.5C 266.216,178.585 266.549,176.919 267.5,175.5C 268.915,169.994 270.915,164.661 273.5,159.5C 274.922,158.075 276.589,157.075 278.5,156.5C 280.455,155.677 282.455,155.51 284.5,156C 281.567,158.264 279.4,161.098 278,164.5C 273.809,174.499 270.976,184.832 269.5,195.5 Z"/></g>
<g><path style="opacity:1" fill="#fcbf4a" d="M 333.5,137.5 C 334.833,138.5 336.167,139.5 337.5,140.5C 340.091,149.778 339.925,159.112 337,168.5C 334.335,177.111 331.669,185.778 329,194.5C 327.784,196.968 326.117,198.968 324,200.5C 321.98,199.968 321.147,198.635 321.5,196.5C 322.829,191.177 324.162,185.844 325.5,180.5C 326.931,179.22 327.598,177.553 327.5,175.5C 327.833,173.5 328.167,171.5 328.5,169.5C 330.68,166.619 331.68,163.286 331.5,159.5C 331.833,159.5 332.167,159.5 332.5,159.5C 333.816,156.913 334.483,153.913 334.5,150.5C 334.333,147.5 334.167,144.5 334,141.5C 332.37,140.182 332.203,138.849 333.5,137.5 Z"/></g>
<g><path style="opacity:1" fill="#fbd287" d="M 283.5,170.5 C 281.112,177.494 278.612,184.494 276,191.5C 274.809,196.767 274.309,202.101 274.5,207.5C 273.819,205.842 272.985,204.175 272,202.5C 271.243,204.315 270.41,205.981 269.5,207.5C 269.5,206.167 269.5,204.833 269.5,203.5C 270.788,201.965 270.788,200.299 269.5,198.5C 268.817,198.863 268.15,199.196 267.5,199.5C 267.66,197.847 268.326,196.514 269.5,195.5C 270.822,195.67 271.989,195.337 273,194.5C 272.463,189.827 272.963,185.16 274.5,180.5C 275.541,178.009 276.374,178.009 277,180.5C 278.923,178.881 279.423,177.048 278.5,175C 280.083,173.242 281.75,171.742 283.5,170.5 Z"/></g>
<g><path style="opacity:1" fill="#fdd07e" d="M 125.5,108.5 C 128.372,110.337 129.706,113.003 129.5,116.5C 127.896,117.287 127.229,118.62 127.5,120.5C 125.738,120.357 124.071,120.691 122.5,121.5C 120.406,123.596 118.073,125.429 115.5,127C 116.428,127.388 117.095,128.055 117.5,129C 116.063,135.307 114.23,141.474 112,147.5C 111.667,144.833 111.333,142.167 111,139.5C 110.944,142.78 110.111,145.78 108.5,148.5C 107.349,153.167 107.349,157.834 108.5,162.5C 107.609,170.351 105.776,178.018 103,185.5C 102.505,187.473 102.338,189.473 102.5,191.5C 101.713,195.339 100.213,199.006 98,202.5C 97.6317,206.85 97.1317,211.183 96.5,215.5C 98.4713,218.423 99.4713,221.757 99.5,225.5C 98.7703,227.045 97.437,227.878 95.5,228C 77.4613,228.916 59.4613,228.582 41.5,227C 39.4156,226.303 37.7489,225.136 36.5,223.5C 38.1667,223.5 39.8333,223.5 41.5,223.5C 41.6107,224.117 41.944,224.617 42.5,225C 60.5444,225.931 78.5444,225.598 96.5,224C 95.8666,220.541 95.2,217.041 94.5,213.5C 93.8165,213.137 93.1499,212.804 92.5,212.5C 92.3225,211.305 91.9891,210.138 91.5,209C 93.7206,197.601 96.0539,186.434 98.5,175.5C 100.97,170.59 102.637,165.257 103.5,159.5C 107.441,148.533 110.441,137.199 112.5,125.5C 113.427,123.887 114.261,122.221 115,120.5C 115.671,119.748 116.504,119.414 117.5,119.5C 122.33,117.415 124.997,113.749 125.5,108.5 Z"/></g>
<g><path style="opacity:1" fill="#fddda0" d="M 327.5,175.5 C 327.598,177.553 326.931,179.22 325.5,180.5C 325.077,178.219 325.744,176.552 327.5,175.5 Z"/></g>
<g><path style="opacity:1" fill="#fde4af" d="M 266.5,180.5 C 265.395,184.352 264.062,188.018 262.5,191.5C 261.909,187.036 263.242,183.369 266.5,180.5 Z"/></g>
<g><path style="opacity:1" fill="#fce5b2" d="M 91.5,180.5 C 90.4314,184.296 89.0981,187.963 87.5,191.5C 87.2779,187.158 88.6112,183.491 91.5,180.5 Z"/></g>
<g><path style="opacity:1" fill="#fdd181" d="M 219.5,154.5 C 221.628,153.371 223.961,153.204 226.5,154C 227.658,155.009 228.325,156.342 228.5,158C 224.777,169.341 220.777,180.508 216.5,191.5C 215.736,193.74 214.902,196.073 214,198.5C 213.713,204.024 213.213,209.524 212.5,215C 213.841,218.801 214.841,222.635 215.5,226.5C 196.914,228.554 178.247,229.054 159.5,228C 158.263,227.768 157.263,227.268 156.5,226.5C 174.528,226.829 192.528,226.329 210.5,225C 211.61,222.263 211.777,219.429 211,216.5C 210.617,215.944 210.117,215.611 209.5,215.5C 207.952,215.179 207.285,214.179 207.5,212.5C 206.722,211.844 206.056,211.011 205.5,210C 207.277,203.991 208.611,197.824 209.5,191.5C 210.649,191.209 211.316,190.376 211.5,189C 213.214,180.529 215.714,172.362 219,164.5C 220.739,161.147 223.239,158.481 226.5,156.5C 226.291,155.914 225.957,155.414 225.5,155C 223.527,154.505 221.527,154.338 219.5,154.5 Z"/></g>
<g><path style="opacity:1" fill="#fcbe45" d="M 98.5,175.5 C 96.0539,186.434 93.7206,197.601 91.5,209C 91.9891,210.138 92.3225,211.305 92.5,212.5C 92.9383,214.126 93.2716,215.793 93.5,217.5C 92.7957,219.535 92.129,221.535 91.5,223.5C 74.8333,223.5 58.1667,223.5 41.5,223.5C 39.8333,223.5 38.1667,223.5 36.5,223.5C 52.995,222.668 69.6616,222.168 86.5,222C 89.2889,219.542 89.9556,216.709 88.5,213.5C 88.0679,212.29 87.4013,211.29 86.5,210.5C 86.1729,208.512 85.8396,206.512 85.5,204.5C 86.4277,200.197 87.0944,195.864 87.5,191.5C 89.0981,187.963 90.4314,184.296 91.5,180.5C 91.2155,178.585 91.5489,176.919 92.5,175.5C 93.1827,172.484 94.1827,169.484 95.5,166.5C 96.7079,165.766 98.0413,165.433 99.5,165.5C 98.7929,168.786 98.4595,172.119 98.5,175.5 Z"/></g>
<g><path style="opacity:1" fill="#fae9c7" d="M 261.5,194.5 C 261.5,196.5 261.5,198.5 261.5,200.5C 263.565,200.483 265.565,200.15 267.5,199.5C 268.15,199.196 268.817,198.863 269.5,198.5C 270.788,200.299 270.788,201.965 269.5,203.5C 269.649,202.448 269.483,201.448 269,200.5C 266.865,202.278 264.365,202.945 261.5,202.5C 260.145,201.886 260.145,199.219 261.5,194.5 Z"/></g>
<g><path style="opacity:1" fill="#fbddae" d="M 87.5,191.5 C 87.0944,195.864 86.4277,200.197 85.5,204.5C 85.8396,206.512 86.1729,208.512 86.5,210.5C 85.1952,208.603 84.5286,206.269 84.5,203.5C 84.0813,198.972 85.0813,194.972 87.5,191.5 Z"/></g>
<g><path style="opacity:1" fill="#fedc9c" d="M 102.5,191.5 C 102.296,194.545 102.296,197.379 102.5,200C 99.6598,202.48 98.3265,205.646 98.5,209.5C 98.6097,214.048 99.6097,218.381 101.5,222.5C 101.36,224.03 100.693,225.03 99.5,225.5C 99.4713,221.757 98.4713,218.423 96.5,215.5C 97.1317,211.183 97.6317,206.85 98,202.5C 100.213,199.006 101.713,195.339 102.5,191.5 Z"/></g>
<g><path style="opacity:1" fill="#f6c565" d="M 207.5,179.5 C 205.989,188.162 203.656,196.496 200.5,204.5C 200.202,207.603 201.535,209.27 204.5,209.5C 205.06,203.089 206.727,197.089 209.5,191.5C 208.611,197.824 207.277,203.991 205.5,210C 206.056,211.011 206.722,211.844 207.5,212.5C 205.228,212.911 204.895,214.078 206.5,216C 206.005,218.991 204.339,220.824 201.5,221.5C 205.726,217.359 205.226,213.693 200,210.5C 199.503,207.854 199.336,205.187 199.5,202.5C 201.606,194.429 204.273,186.763 207.5,179.5 Z"/></g>
<g><path style="opacity:1" fill="#fad795" d="M 269.5,207.5 C 269.502,209.831 268.669,211.831 267,213.5C 263.544,216.802 259.711,219.469 255.5,221.5C 258.773,218.405 262.273,215.405 266,212.5C 267.03,210.654 268.196,208.987 269.5,207.5 Z"/></g>
<g><path style="opacity:1" fill="#fbbe47" d="M 274.5,207.5 C 274.5,210.167 274.5,212.833 274.5,215.5C 273.5,215.5 272.5,215.5 271.5,215.5C 270.029,219.134 267.363,221.634 263.5,223C 260.854,223.497 258.187,223.664 255.5,223.5C 255.5,224.5 255.5,225.5 255.5,226.5C 250.167,226.5 244.833,226.5 239.5,226.5C 237.577,226.205 235.91,225.372 234.5,224C 239.167,223.667 243.833,223.333 248.5,223C 249.416,222.722 250.082,222.222 250.5,221.5C 252.167,221.5 253.833,221.5 255.5,221.5C 259.711,219.469 263.544,216.802 267,213.5C 268.669,211.831 269.502,209.831 269.5,207.5C 270.41,205.981 271.243,204.315 272,202.5C 272.985,204.175 273.819,205.842 274.5,207.5 Z"/></g>
<g><path style="opacity:1" fill="#fad192" d="M 327.5,211.5 C 325.923,214.05 323.923,216.05 321.5,217.5C 322.622,214.562 324.622,212.562 327.5,211.5 Z"/></g>
<g><path style="opacity:1" fill="#fdd17f" d="M 274.5,207.5 C 276.047,209.968 277.38,212.635 278.5,215.5C 278.539,216.583 278.873,217.583 279.5,218.5C 278.092,222.195 275.426,223.862 271.5,223.5C 271.5,224.5 271.5,225.5 271.5,226.5C 268.984,226.755 266.65,227.589 264.5,229C 256.173,229.5 247.84,229.666 239.5,229.5C 239.5,228.5 239.5,227.5 239.5,226.5C 244.833,226.5 250.167,226.5 255.5,226.5C 255.5,225.5 255.5,224.5 255.5,223.5C 258.187,223.664 260.854,223.497 263.5,223C 267.363,221.634 270.029,219.134 271.5,215.5C 272.5,215.5 273.5,215.5 274.5,215.5C 274.5,212.833 274.5,210.167 274.5,207.5 Z"/></g>
<g><path style="opacity:1" fill="#fcbe4a" d="M 335.5,202.5 C 335.5,204.167 335.5,205.833 335.5,207.5C 335.662,209.527 335.495,211.527 335,213.5C 324.244,225.09 311.411,228.424 296.5,223.5C 303.52,223.93 310.186,222.93 316.5,220.5C 318.045,219.36 319.712,218.36 321.5,217.5C 323.923,216.05 325.923,214.05 327.5,211.5C 327.66,209.847 328.326,208.514 329.5,207.5C 330.224,205.782 330.891,203.948 331.5,202C 332.928,201.421 334.262,201.588 335.5,202.5 Z"/></g>
<g><path style="opacity:1" fill="#fdd998" d="M 335.5,202.5 C 345.067,203.911 347.067,208.744 341.5,217C 339.231,219.095 337.231,221.261 335.5,223.5C 336.697,219.749 338.197,216.082 340,212.5C 340.494,210.866 340.66,209.199 340.5,207.5C 338.833,207.5 337.167,207.5 335.5,207.5C 335.5,205.833 335.5,204.167 335.5,202.5 Z"/></g>
<g><path style="opacity:1" fill="#feecca" d="M 87.5,217.5 C 87.4257,219.411 86.4257,220.578 84.5,221C 67.8367,221.5 51.17,221.667 34.5,221.5C 49.9946,220.669 65.6613,220.169 81.5,220C 83.4885,219.062 85.4885,218.228 87.5,217.5 Z"/></g>
<g><path style="opacity:1" fill="#fdebca" d="M 199.5,202.5 C 199.336,205.187 199.503,207.854 200,210.5C 205.226,213.693 205.726,217.359 201.5,221.5C 201.167,221.5 200.833,221.5 200.5,221.5C 184.167,221.5 167.833,221.5 151.5,221.5C 148.302,222.036 145.635,221.369 143.5,219.5C 161.466,220.46 179.466,220.793 197.5,220.5C 197.5,219.5 197.5,218.5 197.5,217.5C 199.167,217.5 200.833,217.5 202.5,217.5C 202.723,214.886 201.556,213.219 199,212.5C 198.192,208.973 198.359,205.64 199.5,202.5 Z"/></g>
<g><path style="opacity:1" fill="#f3c264" d="M 88.5,213.5 C 89.9556,216.709 89.2889,219.542 86.5,222C 69.6616,222.168 52.995,222.668 36.5,223.5C 35.1667,223.5 34.5,222.833 34.5,221.5C 51.17,221.667 67.8367,221.5 84.5,221C 86.4257,220.578 87.4257,219.411 87.5,217.5C 88.4345,216.432 88.7678,215.099 88.5,213.5 Z"/></g>
<g><path style="opacity:1" fill="#f2c162" d="M 151.5,221.5 C 167.833,221.5 184.167,221.5 200.5,221.5C 184.833,222.167 169.167,222.833 153.5,223.5C 152.127,223.657 150.793,223.49 149.5,223C 150.416,222.722 151.082,222.222 151.5,221.5 Z"/></g>
<g><path style="opacity:1" fill="#febd36" d="M 207.5,212.5 C 207.285,214.179 207.952,215.179 209.5,215.5C 209.84,218.144 209.173,220.477 207.5,222.5C 189.846,223.5 172.179,223.833 154.5,223.5C 154.167,223.5 153.833,223.5 153.5,223.5C 169.167,222.833 184.833,222.167 200.5,221.5C 200.833,221.5 201.167,221.5 201.5,221.5C 204.339,220.824 206.005,218.991 206.5,216C 204.895,214.078 205.228,212.911 207.5,212.5 Z"/></g>
<g><path style="opacity:1" fill="#fcc863" d="M 92.5,212.5 C 93.1499,212.804 93.8165,213.137 94.5,213.5C 95.2,217.041 95.8666,220.541 96.5,224C 78.5444,225.598 60.5444,225.931 42.5,225C 41.944,224.617 41.6107,224.117 41.5,223.5C 58.1667,223.5 74.8333,223.5 91.5,223.5C 92.129,221.535 92.7957,219.535 93.5,217.5C 93.2716,215.793 92.9383,214.126 92.5,212.5 Z"/></g>
<g><path style="opacity:1" fill="#fdcb69" d="M 209.5,215.5 C 210.117,215.611 210.617,215.944 211,216.5C 211.777,219.429 211.61,222.263 210.5,225C 192.528,226.329 174.528,226.829 156.5,226.5C 155.833,225.5 155.167,224.5 154.5,223.5C 172.179,223.833 189.846,223.5 207.5,222.5C 209.173,220.477 209.84,218.144 209.5,215.5 Z"/></g>
<g><path style="opacity:1" fill="#fcd07d" d="M 335.5,207.5 C 337.167,207.5 338.833,207.5 340.5,207.5C 340.66,209.199 340.494,210.866 340,212.5C 338.197,216.082 336.697,219.749 335.5,223.5C 334.127,223.343 332.793,223.51 331.5,224C 330.023,226.148 328.023,227.482 325.5,228C 313.985,230.929 302.985,229.763 292.5,224.5C 293.689,223.571 295.022,223.238 296.5,223.5C 311.411,228.424 324.244,225.09 335,213.5C 335.495,211.527 335.662,209.527 335.5,207.5 Z"/></g>
<g><path style="opacity:1" fill="#f5c967" d="M 265.5,255.5 C 264.5,255.5 263.5,255.5 262.5,255.5C 262.176,260.833 259.843,264.833 255.5,267.5C 256.199,265.005 257.199,262.672 258.5,260.5C 260.694,258.779 261.861,256.445 262,253.5C 263.011,252.663 264.178,252.33 265.5,252.5C 265.5,253.5 265.5,254.5 265.5,255.5 Z"/></g>
<g><path style="opacity:1" fill="#fdd07d" d="M 266.5,255.5 C 267.93,255.421 269.264,255.754 270.5,256.5C 270.833,258.5 271.167,260.5 271.5,262.5C 272.579,267.256 270.912,270.256 266.5,271.5C 266.216,274.254 265.549,276.92 264.5,279.5C 262.302,281.908 260.636,284.575 259.5,287.5C 258.167,287.5 256.833,287.5 255.5,287.5C 254.5,287.5 253.5,287.5 252.5,287.5C 257.186,279.036 261.686,270.369 266,261.5C 266.495,259.527 266.662,257.527 266.5,255.5 Z"/></g>
<g><path style="opacity:1" fill="#fbeacd" d="M 255.5,249.5 C 248.492,249.334 241.492,249.5 234.5,250C 232.285,252.294 230.618,254.961 229.5,258C 228.174,262.547 227.174,267.047 226.5,271.5C 226.377,264.708 227.21,258.041 229,251.5C 229.833,250.667 230.667,249.833 231.5,249C 239.677,248.177 247.677,248.344 255.5,249.5 Z"/></g>
<g><path style="opacity:1" fill="#50817d" d="M 499.5,257.5 C 499.5,258.833 499.5,260.167 499.5,261.5C 497.685,262.63 495.685,263.296 493.5,263.5C 494.149,260.184 496.149,258.184 499.5,257.5 Z"/></g>
<g><path style="opacity:1" fill="#fbbd46" d="M 265.5,255.5 C 265.833,255.5 266.167,255.5 266.5,255.5C 266.662,257.527 266.495,259.527 266,261.5C 261.686,270.369 257.186,279.036 252.5,287.5C 251.325,287.281 250.325,287.614 249.5,288.5C 248.968,290.741 247.635,292.241 245.5,293C 242.294,293.89 239.294,293.557 236.5,292C 237.737,291.768 238.737,291.268 239.5,290.5C 239.5,290.167 239.5,289.833 239.5,289.5C 241.062,289.267 242.395,288.6 243.5,287.5C 246.478,282.217 249.478,276.884 252.5,271.5C 253.488,270.205 254.488,268.872 255.5,267.5C 259.843,264.833 262.176,260.833 262.5,255.5C 263.5,255.5 264.5,255.5 265.5,255.5 Z"/></g>
<g><path style="opacity:1" fill="#fee2b2" d="M 499.5,264.5 C 499.5,342.833 499.5,421.167 499.5,499.5C 332.833,499.5 166.167,499.5 -0.5,499.5C -0.5,459.167 -0.5,418.833 -0.5,378.5C 2.5,378.5 5.5,378.5 8.5,378.5C 10.8273,378.247 12.8273,378.914 14.5,380.5C 17.0164,379.67 19.3498,378.67 21.5,377.5C 22.1667,377.5 22.8333,377.5 23.5,377.5C 24.8195,376.058 26.4862,375.392 28.5,375.5C 29.209,376.404 30.209,376.737 31.5,376.5C 33.0481,376.821 33.7148,377.821 33.5,379.5C 37.0053,380.109 39.672,378.942 41.5,376C 43.764,375.764 45.9307,375.264 48,374.5C 48.3333,374.833 48.6667,375.167 49,375.5C 50.8259,373.926 52.9925,373.093 55.5,373C 56.8613,371.416 57.528,369.582 57.5,367.5C 60.2815,365.479 63.2815,365.146 66.5,366.5C 67.2868,365.758 67.9535,364.925 68.5,364C 67.782,362.013 66.782,360.179 65.5,358.5C 69.1859,358.805 72.8526,358.305 76.5,357C 77.7577,355.259 78.7577,353.426 79.5,351.5C 81.1136,350.729 82.6136,349.729 84,348.5C 86.8281,349.525 89.3281,348.859 91.5,346.5C 92.782,345.042 92.782,343.708 91.5,342.5C 91.8333,341.5 92.5,340.833 93.5,340.5C 93.7903,337.472 95.457,335.472 98.5,334.5C 102.145,335.591 104.812,334.258 106.5,330.5C 106.291,329.914 105.957,329.414 105.5,329C 106.793,328.51 108.127,328.343 109.5,328.5C 108.833,330.833 108.167,333.167 107.5,335.5C 109.734,334.296 112.067,333.13 114.5,332C 113.552,331.517 112.552,331.351 111.5,331.5C 111.5,330.167 111.5,328.833 111.5,327.5C 114.059,327.61 116.392,326.944 118.5,325.5C 119.167,322.5 119.833,319.5 120.5,316.5C 121.667,316.167 122.833,315.833 124,315.5C 127.047,317.058 130.214,317.891 133.5,318C 134.376,316.414 135.376,314.914 136.5,313.5C 135.5,312.667 134.5,311.833 133.5,311C 134.549,310.508 135.549,310.674 136.5,311.5C 137.189,313.338 137.522,315.005 137.5,316.5C 141.438,314.227 141.438,312.061 137.5,310C 140.726,308.628 144.059,307.462 147.5,306.5C 147.833,306.833 148.167,307.167 148.5,307.5C 147.37,308.622 146.703,309.956 146.5,311.5C 145.866,317.984 144.866,324.317 143.5,330.5C 143.5,332.167 143.5,333.833 143.5,335.5C 142.5,335.5 141.5,335.5 140.5,335.5C 138.986,342.898 137.153,350.231 135,357.5C 132.361,360.45 130.527,363.783 129.5,367.5C 127.833,367.5 126.167,367.5 124.5,367.5C 123.779,370.817 123.612,374.151 124,377.5C 125.231,378.108 126.564,378.441 128,378.5C 145.484,377.715 162.984,377.215 180.5,377C 182.34,374.174 183.006,371.007 182.5,367.5C 185.286,371.094 184.952,374.594 181.5,378C 180.207,378.49 178.873,378.657 177.5,378.5C 163.163,378.333 148.829,378.5 134.5,379C 133.5,379.333 132.5,379.667 131.5,380C 133.403,381.447 135.07,383.114 136.5,385C 154.83,385.5 173.164,385.667 191.5,385.5C 170.167,386.167 148.833,386.833 127.5,387.5C 127.5,393.167 127.5,398.833 127.5,404.5C 130.881,404.54 134.214,404.207 137.5,403.5C 139.5,403.5 141.5,403.5 143.5,403.5C 251.833,403.5 360.167,403.5 468.5,403.5C 468.5,398.167 468.5,392.833 468.5,387.5C 443.661,387.831 418.994,387.498 394.5,386.5C 404.31,387.073 413.977,386.24 423.5,384C 426.091,381.883 428.758,380.05 431.5,378.5C 432.496,378.586 433.329,378.252 434,377.5C 435.16,373.407 436.66,369.574 438.5,366C 438.085,358.703 435.752,357.869 431.5,363.5C 432.04,360.313 431.04,357.813 428.5,356C 430.676,349.159 432.676,342.325 434.5,335.5C 435.5,335.5 436.5,335.5 437.5,335.5C 437.882,331.022 438.882,326.689 440.5,322.5C 441.482,319.038 441.815,315.371 441.5,311.5C 444.2,310.484 446.866,310.484 449.5,311.5C 450.833,308.833 452.833,306.833 455.5,305.5C 454.189,304.742 453.689,303.742 454,302.5C 455.011,303.337 456.178,303.67 457.5,303.5C 457.034,301.799 457.034,300.299 457.5,299C 459.305,298.028 460.972,296.861 462.5,295.5C 463.142,298.797 464.309,299.131 466,296.5C 466.056,293.22 466.889,290.22 468.5,287.5C 471.874,285.762 475.207,284.096 478.5,282.5C 478.281,283.675 478.614,284.675 479.5,285.5C 481.115,284.846 482.782,284.346 484.5,284C 485.227,282.601 485.727,281.101 486,279.5C 486.112,282.447 487.612,283.78 490.5,283.5C 490.591,277.983 490.925,272.65 491.5,267.5C 491.124,265.617 490.124,264.117 488.5,263C 491.186,263.666 493.686,264.832 496,266.5C 497.434,266.138 498.601,265.472 499.5,264.5 Z"/></g>
<g><path style="opacity:1" fill="#46787e" d="M 486.5,266.5 C 487.5,266.5 488.5,266.5 489.5,266.5C 488.105,270.225 485.438,272.558 481.5,273.5C 481.351,272.448 481.517,271.448 482,270.5C 483.992,269.672 485.492,268.339 486.5,266.5 Z"/></g>
<g><path style="opacity:1" fill="#f8f0df" d="M 213.5,265.5 C 212.5,267.5 211.5,269.5 210.5,271.5C 209.209,271.263 208.209,271.596 207.5,272.5C 204.796,274.049 202.963,276.383 202,279.5C 200.921,282.063 200.421,284.729 200.5,287.5C 199.566,288.568 199.232,289.901 199.5,291.5C 198.203,293.371 197.203,295.371 196.5,297.5C 197.443,293.476 197.443,289.476 196.5,285.5C 196.899,283.803 197.399,282.137 198,280.5C 198.333,280.833 198.667,281.167 199,281.5C 201.584,278.664 202.751,275.331 202.5,271.5C 201.5,271.5 200.5,271.5 199.5,271.5C 199.908,274.599 198.741,276.933 196,278.5C 195.503,276.19 195.337,273.857 195.5,271.5C 183.5,271.5 171.5,271.5 159.5,271.5C 158.993,277.534 158.159,283.534 157,289.5C 155.997,292.84 154.497,295.84 152.5,298.5C 154.774,290.837 156.44,283.004 157.5,275C 155.952,271.84 154.952,268.506 154.5,265C 154.396,262.855 155.063,261.021 156.5,259.5C 175.509,258.245 194.509,258.245 213.5,259.5C 213.5,261.5 213.5,263.5 213.5,265.5 Z"/></g>
<g><path style="opacity:1" fill="#f6f1eb" d="M 159.5,261.5 C 175.5,261.5 191.5,261.5 207.5,261.5C 207.833,266.833 208.167,266.833 208.5,261.5C 209.833,261.5 211.167,261.5 212.5,261.5C 213.154,265.683 211.488,268.516 207.5,270C 191.49,270.833 175.49,270.666 159.5,269.5C 156.876,266.756 156.876,264.09 159.5,261.5 Z"/></g>
<g><path style="opacity:1" fill="#f6f1e8" d="M 196.5,297.5 C 195.793,300.786 195.46,304.119 195.5,307.5C 192.29,314.012 190.29,321.012 189.5,328.5C 187.98,330.588 186.98,332.922 186.5,335.5C 181.856,344.543 179.69,354.21 180,364.5C 180.232,365.737 180.732,366.737 181.5,367.5C 181.833,367.5 182.167,367.5 182.5,367.5C 183.006,371.007 182.34,374.174 180.5,377C 162.984,377.215 145.484,377.715 128,378.5C 126.564,378.441 125.231,378.108 124,377.5C 123.612,374.151 123.779,370.817 124.5,367.5C 126.167,367.5 127.833,367.5 129.5,367.5C 130.527,363.783 132.361,360.45 135,357.5C 137.153,350.231 138.986,342.898 140.5,335.5C 141.5,335.5 142.5,335.5 143.5,335.5C 143.5,333.833 143.5,332.167 143.5,330.5C 144.79,329.942 145.623,328.942 146,327.5C 145.583,322.691 147.083,318.691 150.5,315.5C 150.013,314.554 149.68,313.554 149.5,312.5C 151.094,309.015 151.76,305.348 151.5,301.5C 151.263,300.209 151.596,299.209 152.5,298.5C 154.497,295.84 155.997,292.84 157,289.5C 158.159,283.534 158.993,277.534 159.5,271.5C 171.5,271.5 183.5,271.5 195.5,271.5C 195.337,273.857 195.503,276.19 196,278.5C 198.741,276.933 199.908,274.599 199.5,271.5C 200.5,271.5 201.5,271.5 202.5,271.5C 202.751,275.331 201.584,278.664 199,281.5C 198.667,281.167 198.333,280.833 198,280.5C 197.399,282.137 196.899,283.803 196.5,285.5C 197.443,289.476 197.443,293.476 196.5,297.5 Z"/></g>
<g><path style="opacity:1" fill="#f6f1e8" d="M 255.5,249.5 C 256.822,249.33 257.989,249.663 259,250.5C 259.659,253.888 259.492,257.221 258.5,260.5C 257.199,262.672 256.199,265.005 255.5,267.5C 254.488,268.872 253.488,270.205 252.5,271.5C 250.926,271.937 249.759,272.937 249,274.5C 248.099,277.071 246.766,279.404 245,281.5C 243.872,283.345 243.372,285.345 243.5,287.5C 242.395,288.6 241.062,289.267 239.5,289.5C 234.5,289.5 229.5,289.5 224.5,289.5C 224.5,288.167 224.5,286.833 224.5,285.5C 223.5,285.5 222.5,285.5 221.5,285.5C 224.979,281.643 226.646,276.976 226.5,271.5C 227.174,267.047 228.174,262.547 229.5,258C 230.618,254.961 232.285,252.294 234.5,250C 241.492,249.5 248.492,249.334 255.5,249.5 Z"/></g>
<g><path style="opacity:1" fill="#f4ca7d" d="M 207.5,272.5 C 204.975,277.409 202.641,282.409 200.5,287.5C 200.421,284.729 200.921,282.063 202,279.5C 202.963,276.383 204.796,274.049 207.5,272.5 Z"/></g>
<g><path style="opacity:1" fill="#fccf7c" d="M 214.5,287.5 C 212.167,287.5 209.833,287.5 207.5,287.5C 207.575,284.593 208.409,281.927 210,279.5C 213.35,276.081 216.684,272.748 220,269.5C 220.49,268.207 220.657,266.873 220.5,265.5C 218.738,265.357 217.071,265.691 215.5,266.5C 214.145,268.521 212.479,270.188 210.5,271.5C 211.5,269.5 212.5,267.5 213.5,265.5C 215.104,264.713 215.771,263.38 215.5,261.5C 216.978,261.238 218.311,261.571 219.5,262.5C 220.36,264.931 222.027,266.264 224.5,266.5C 224.665,269.518 224.498,272.518 224,275.5C 222.933,276.191 221.766,276.691 220.5,277C 217.082,279.667 215.082,283.167 214.5,287.5 Z"/></g>
<g><path style="opacity:1" fill="#f8e5b8" d="M 252.5,271.5 C 249.478,276.884 246.478,282.217 243.5,287.5C 243.372,285.345 243.872,283.345 245,281.5C 246.766,279.404 248.099,277.071 249,274.5C 249.759,272.937 250.926,271.937 252.5,271.5 Z"/></g>
<g><path style="opacity:1" fill="#fce4bf" d="M 420.5,289.5 C 415.038,285.662 408.871,283.995 402,284.5C 396.555,284.379 391.388,285.379 386.5,287.5C 388.617,285.937 390.95,284.604 393.5,283.5C 402.195,282.807 410.861,282.14 419.5,281.5C 422.801,283.47 425.801,285.803 428.5,288.5C 427.833,288.833 427.167,289.167 426.5,289.5C 425.167,288.833 423.833,288.167 422.5,287.5C 421.287,287.747 420.62,288.414 420.5,289.5 Z"/></g>
<g><path style="opacity:1" fill="#7a9e95" d="M 476.5,280.5 C 476.649,279.448 476.483,278.448 476,277.5C 474.333,279.167 472.667,280.833 471,282.5C 470.308,283.437 470.475,284.103 471.5,284.5C 471.44,285.043 471.107,285.376 470.5,285.5C 469.386,284.277 469.219,282.944 470,281.5C 471.5,280 473,278.5 474.5,277C 475.784,276.316 476.951,276.483 478,277.5C 478.585,278.998 478.085,279.998 476.5,280.5 Z"/></g>
<g><path style="opacity:1" fill="#33707f" d="M 476.5,280.5 C 474.833,281.833 473.167,283.167 471.5,284.5C 470.475,284.103 470.308,283.437 471,282.5C 472.667,280.833 474.333,279.167 476,277.5C 476.483,278.448 476.649,279.448 476.5,280.5 Z"/></g>
<g><path style="opacity:1" fill="#889a94" d="M 221.5,285.5 C 222.5,285.5 223.5,285.5 224.5,285.5C 224.5,286.833 224.5,288.167 224.5,289.5C 223.167,289.5 221.833,289.5 220.5,289.5C 220.232,287.901 220.566,286.568 221.5,285.5 Z"/></g>
<g><path style="opacity:1" fill="#fceacc" d="M 361.5,289.5 C 362.5,291.167 363.833,292.5 365.5,293.5C 366.167,294.833 366.833,296.167 367.5,297.5C 364.612,297.78 363.112,296.447 363,293.5C 361.333,292.5 359.667,291.5 358,290.5C 357.517,289.552 357.351,288.552 357.5,287.5C 355.42,286.956 353.42,286.122 351.5,285C 343.194,283.848 335.194,284.682 327.5,287.5C 327.937,285.926 328.937,284.759 330.5,284C 338.445,282.512 346.445,282.178 354.5,283C 357.989,283.991 360.323,286.158 361.5,289.5 Z"/></g>
<g><path style="opacity:1" fill="#f6f1e8" d="M 309.5,293.5 C 310.219,295.764 310.552,298.097 310.5,300.5C 312.38,300.771 313.713,300.104 314.5,298.5C 314.833,297.833 315.167,297.167 315.5,296.5C 316.167,296.5 316.5,296.167 316.5,295.5C 318.89,291.133 322.557,288.466 327.5,287.5C 335.194,284.682 343.194,283.848 351.5,285C 353.42,286.122 355.42,286.956 357.5,287.5C 357.351,288.552 357.517,289.552 358,290.5C 359.667,291.5 361.333,292.5 363,293.5C 363.112,296.447 364.612,297.78 367.5,297.5C 367.5,298.167 367.5,298.833 367.5,299.5C 367.628,301.09 368.295,302.423 369.5,303.5C 371.237,302.103 372.571,300.436 373.5,298.5C 374.451,297.081 374.784,295.415 374.5,293.5C 378.246,291.11 382.246,289.11 386.5,287.5C 391.388,285.379 396.555,284.379 402,284.5C 408.871,283.995 415.038,285.662 420.5,289.5C 422.5,292.167 424.5,294.833 426.5,297.5C 426.833,298.167 427.167,298.833 427.5,299.5C 427.546,306.191 427.212,312.857 426.5,319.5C 425.076,321.515 424.41,323.848 424.5,326.5C 423.89,327.391 423.557,328.391 423.5,329.5C 421.229,334.565 419.563,339.898 418.5,345.5C 416.923,349.253 415.923,353.253 415.5,357.5C 415.962,358.88 416.962,359.547 418.5,359.5C 420.325,358.349 422.325,357.682 424.5,357.5C 423.03,361.336 422.03,365.336 421.5,369.5C 419.297,370.884 417.297,372.551 415.5,374.5C 415.5,374.833 415.5,375.167 415.5,375.5C 411.765,376.301 408.099,377.301 404.5,378.5C 397.468,378.83 390.468,378.497 383.5,377.5C 378.535,375.191 374.535,371.858 371.5,367.5C 370.806,362.195 370.472,356.862 370.5,351.5C 371.856,348.423 372.689,345.09 373,341.5C 376.677,336.809 378.677,331.476 379,325.5C 382.53,321.733 383.696,317.399 382.5,312.5C 381.817,312.137 381.15,311.804 380.5,311.5C 380.5,311.167 380.5,310.833 380.5,310.5C 375.11,308.144 371.444,309.811 369.5,315.5C 368.4,316.605 367.733,317.938 367.5,319.5C 365.179,321.09 364.179,323.423 364.5,326.5C 363.37,331.224 362.036,335.891 360.5,340.5C 358.517,343.799 357.517,347.466 357.5,351.5C 356.532,353.607 356.198,355.941 356.5,358.5C 359.755,358.986 362.422,357.986 364.5,355.5C 365.474,357.743 365.808,360.076 365.5,362.5C 364.976,364.306 364.309,365.972 363.5,367.5C 360.062,371.274 356.062,374.274 351.5,376.5C 351.5,376.833 351.5,377.167 351.5,377.5C 342.516,378.432 333.516,378.599 324.5,378C 320.921,376.738 317.588,375.071 314.5,373C 313.283,371.352 312.45,369.519 312,367.5C 311.501,362.177 311.334,356.844 311.5,351.5C 315.607,339.679 319.607,327.846 323.5,316C 323.646,313.966 322.98,312.299 321.5,311C 314.016,309.223 310.016,312.057 309.5,319.5C 308.833,319.5 308.167,319.5 307.5,319.5C 305.958,323.325 304.624,327.325 303.5,331.5C 302.594,334.436 301.928,337.436 301.5,340.5C 299.126,343.686 298.126,347.353 298.5,351.5C 298.167,351.5 297.833,351.5 297.5,351.5C 294.609,354.498 293.276,358.164 293.5,362.5C 293.556,364.64 294.223,366.306 295.5,367.5C 295.833,367.5 296.167,367.5 296.5,367.5C 298.428,369.781 299.428,372.447 299.5,375.5C 298.713,377.104 297.38,377.771 295.5,377.5C 276.833,377.5 258.167,377.5 239.5,377.5C 238.162,371.282 240.495,367.949 246.5,367.5C 247.557,364.413 249.391,361.746 252,359.5C 252.855,354.007 254.022,348.673 255.5,343.5C 255.5,340.833 255.5,338.167 255.5,335.5C 256.5,335.5 257.5,335.5 258.5,335.5C 259.167,330.167 259.833,324.833 260.5,319.5C 261.5,319.5 262.5,319.5 263.5,319.5C 263.336,316.813 263.503,314.146 264,311.5C 266.208,308.376 266.708,305.043 265.5,301.5C 262.821,299.082 260.488,296.415 258.5,293.5C 259.5,293.5 260.5,293.5 261.5,293.5C 261.567,292.041 261.234,290.708 260.5,289.5C 266.756,288.079 273.089,286.579 279.5,285C 286.167,284.333 292.833,284.333 299.5,285C 304.779,285.859 308.112,288.692 309.5,293.5 Z"/></g>
<g><path style="opacity:1" fill="#6e855b" d="M 207.5,287.5 C 209.833,287.5 212.167,287.5 214.5,287.5C 214.5,288.5 214.5,289.5 214.5,290.5C 212.167,290.5 209.833,290.5 207.5,290.5C 207.5,289.5 207.5,288.5 207.5,287.5 Z"/></g>
<g><path style="opacity:1" fill="#f9da9a" d="M 373.5,298.5 C 372.571,300.436 371.237,302.103 369.5,303.5C 368.295,302.423 367.628,301.09 367.5,299.5C 368.708,300.234 370.041,300.567 371.5,300.5C 372.178,296.189 370.512,293.189 366.5,291.5C 365.702,291.957 365.369,292.624 365.5,293.5C 363.833,292.5 362.5,291.167 361.5,289.5C 361.62,288.414 362.287,287.747 363.5,287.5C 364.863,288.198 366.029,288.198 367,287.5C 368.309,289.976 370.142,291.976 372.5,293.5C 373.309,295.071 373.643,296.738 373.5,298.5 Z"/></g>
<g><path style="opacity:1" fill="#758b70" d="M 252.5,287.5 C 253.5,287.5 254.5,287.5 255.5,287.5C 256.78,288.931 258.447,289.598 260.5,289.5C 261.234,290.708 261.567,292.041 261.5,293.5C 260.5,293.5 259.5,293.5 258.5,293.5C 257.791,292.596 256.791,292.263 255.5,292.5C 255.179,290.952 254.179,290.285 252.5,290.5C 252.5,289.5 252.5,288.5 252.5,287.5 Z"/></g>
<g><path style="opacity:1" fill="#f8cf7e" d="M 252.5,287.5 C 252.5,288.5 252.5,289.5 252.5,290.5C 254.179,290.285 255.179,290.952 255.5,292.5C 255.804,293.15 256.137,293.817 256.5,294.5C 251.163,297.053 245.496,298.386 239.5,298.5C 239.5,297.5 239.5,296.5 239.5,295.5C 235.651,295.981 233.651,294.314 233.5,290.5C 235.5,290.5 237.5,290.5 239.5,290.5C 238.737,291.268 237.737,291.768 236.5,292C 239.294,293.557 242.294,293.89 245.5,293C 247.635,292.241 248.968,290.741 249.5,288.5C 250.325,287.614 251.325,287.281 252.5,287.5 Z"/></g>
<g><path style="opacity:1" fill="#f6d383" d="M 316.5,295.5 C 316.5,296.167 316.167,296.5 315.5,296.5C 315.833,293.5 314.5,292.167 311.5,292.5C 311.34,294.199 311.506,295.866 312,297.5C 312.671,298.252 313.504,298.586 314.5,298.5C 313.713,300.104 312.38,300.771 310.5,300.5C 310.552,298.097 310.219,295.764 309.5,293.5C 309.238,292.022 309.571,290.689 310.5,289.5C 312.179,290.782 314.013,291.782 316,292.5C 316.483,293.448 316.649,294.448 316.5,295.5 Z"/></g>
<g><path style="opacity:1" fill="#4d8182" d="M 461.5,289.5 C 462.586,289.62 463.253,290.287 463.5,291.5C 461.694,294.839 459.028,296.672 455.5,297C 455.167,296.667 454.833,296.333 454.5,296C 456.729,293.6 459.063,291.433 461.5,289.5 Z"/></g>
<g><path style="opacity:1" fill="#f6c24c" d="M 315.5,296.5 C 315.167,297.167 314.833,297.833 314.5,298.5C 313.504,298.586 312.671,298.252 312,297.5C 311.506,295.866 311.34,294.199 311.5,292.5C 314.5,292.167 315.833,293.5 315.5,296.5 Z"/></g>
<g><path style="opacity:1" fill="#fac050" d="M 367.5,299.5 C 367.5,298.833 367.5,298.167 367.5,297.5C 366.833,296.167 366.167,294.833 365.5,293.5C 365.369,292.624 365.702,291.957 366.5,291.5C 370.512,293.189 372.178,296.189 371.5,300.5C 370.041,300.567 368.708,300.234 367.5,299.5 Z"/></g>
<g><path style="opacity:1" fill="#f7ca73" d="M 199.5,291.5 C 199.874,297.37 198.541,302.703 195.5,307.5C 195.46,304.119 195.793,300.786 196.5,297.5C 197.203,295.371 198.203,293.371 199.5,291.5 Z"/></g>
<g><path style="opacity:1" fill="#fcbe40" d="M 431.5,297.5 C 431.5,297.833 431.5,298.167 431.5,298.5C 433.044,301.248 433.71,304.248 433.5,307.5C 432.504,307.414 431.671,307.748 431,308.5C 430.189,304.504 429.856,300.504 430,296.5C 430.383,297.056 430.883,297.389 431.5,297.5 Z"/></g>
<g><path style="opacity:1" fill="#3a747f" d="M 145.5,301.5 C 145.719,302.675 145.386,303.675 144.5,304.5C 142.189,305.961 139.856,306.294 137.5,305.5C 137.863,304.817 138.196,304.15 138.5,303.5C 140.921,303.122 143.254,302.455 145.5,301.5 Z"/></g>
<g><path style="opacity:1" fill="#4e8181" d="M 445.5,300.5 C 447.346,300.222 448.68,300.889 449.5,302.5C 446.833,304.167 444.167,305.833 441.5,307.5C 440.167,306.167 440.167,304.833 441.5,303.5C 442.901,302.479 444.235,301.479 445.5,300.5 Z"/></g>
<g><path style="opacity:1" fill="#fbe5b9" d="M 427.5,299.5 C 428.632,306.012 428.632,312.679 427.5,319.5C 427.167,319.5 426.833,319.5 426.5,319.5C 427.212,312.857 427.546,306.191 427.5,299.5 Z"/></g>
<g><path style="opacity:1" fill="#acbcaa" d="M 145.5,301.5 C 147.088,302.635 147.421,303.969 146.5,305.5C 143.292,306.802 139.959,307.469 136.5,307.5C 136.157,305.517 136.824,304.183 138.5,303.5C 138.196,304.15 137.863,304.817 137.5,305.5C 139.856,306.294 142.189,305.961 144.5,304.5C 145.386,303.675 145.719,302.675 145.5,301.5 Z"/></g>
<g><path style="opacity:1" fill="#feecc3" d="M 380.5,310.5 C 375.948,310.277 372.281,311.944 369.5,315.5C 371.444,309.811 375.11,308.144 380.5,310.5 Z"/></g>
<g><path style="opacity:1" fill="#477b7f" d="M 127.5,308.5 C 128.5,308.5 129.5,308.5 130.5,308.5C 129.337,312.312 126.67,314.312 122.5,314.5C 122.351,313.448 122.517,312.448 123,311.5C 124.652,310.601 126.152,309.601 127.5,308.5 Z"/></g>
<g><path style="opacity:1" fill="#e5b753" d="M 431.5,297.5 C 430.883,297.389 430.383,297.056 430,296.5C 429.856,300.504 430.189,304.504 431,308.5C 431.671,307.748 432.504,307.414 433.5,307.5C 436.022,308.665 436.022,309.998 433.5,311.5C 431.824,312.183 431.157,313.517 431.5,315.5C 430.5,315.5 429.5,315.5 428.5,315.5C 428.768,317.099 428.434,318.432 427.5,319.5C 428.632,312.679 428.632,306.012 427.5,299.5C 427.167,298.833 426.833,298.167 426.5,297.5C 425.85,295.565 425.517,293.565 425.5,291.5C 428.455,292.455 430.455,294.455 431.5,297.5 Z"/></g>
<g><path style="opacity:1" fill="#51848a" d="M 114.5,315.5 C 117.179,315.525 118.512,316.858 118.5,319.5C 115.482,319.506 112.816,320.506 110.5,322.5C 110.167,322 109.833,321.5 109.5,321C 110.845,318.76 112.512,316.926 114.5,315.5 Z"/></g>
<g><path style="opacity:1" fill="#f9ebd0" d="M 151.5,301.5 C 151.76,305.348 151.094,309.015 149.5,312.5C 149.68,313.554 150.013,314.554 150.5,315.5C 147.083,318.691 145.583,322.691 146,327.5C 145.623,328.942 144.79,329.942 143.5,330.5C 144.866,324.317 145.866,317.984 146.5,311.5C 148.173,310.657 149.34,309.324 150,307.5C 150.191,305.292 150.691,303.292 151.5,301.5 Z"/></g>
<g><path style="opacity:1" fill="#f6d895" d="M 367.5,319.5 C 367.293,322.241 366.293,324.574 364.5,326.5C 364.179,323.423 365.179,321.09 367.5,319.5 Z"/></g>
<g><path style="opacity:1" fill="#fad592" d="M 426.5,319.5 C 426.59,322.152 425.924,324.485 424.5,326.5C 424.41,323.848 425.076,321.515 426.5,319.5 Z"/></g>
<g><path style="opacity:1" fill="#fbcf7d" d="M 311.5,351.5 C 310.833,351.5 310.167,351.5 309.5,351.5C 308.047,357.621 307.047,363.954 306.5,370.5C 306.571,373.74 308.071,376.073 311,377.5C 311.867,380.521 311.367,383.188 309.5,385.5C 309.167,385.5 308.833,385.5 308.5,385.5C 290.821,385.833 273.154,385.5 255.5,384.5C 253.709,383.83 252.042,383.163 250.5,382.5C 263.217,382.186 275.883,382.519 288.5,383.5C 293.447,382.717 298.447,382.217 303.5,382C 304.416,381.626 305.25,381.126 306,380.5C 306.789,378.288 306.622,376.288 305.5,374.5C 304.817,372.824 303.483,372.157 301.5,372.5C 301.715,374.179 301.048,375.179 299.5,375.5C 299.428,372.447 298.428,369.781 296.5,367.5C 297.583,367.539 298.583,367.873 299.5,368.5C 303.889,355.11 307.889,341.61 311.5,328C 311.043,327.586 310.709,327.086 310.5,326.5C 312.067,323.034 313.9,319.701 316,316.5C 317.356,315.62 318.856,315.286 320.5,315.5C 320.5,314.5 320.5,313.5 320.5,312.5C 315.562,312.761 311.895,315.094 309.5,319.5C 310.016,312.057 314.016,309.223 321.5,311C 322.98,312.299 323.646,313.966 323.5,316C 319.607,327.846 315.607,339.679 311.5,351.5 Z"/></g>
<g><path style="opacity:1" fill="#fcbe49" d="M 380.5,310.5 C 380.5,310.833 380.5,311.167 380.5,311.5C 380.5,312.5 380.5,313.5 380.5,314.5C 378.533,314.261 376.699,314.594 375,315.5C 373.949,322.489 371.782,329.155 368.5,335.5C 366.837,341.806 365.004,348.139 363,354.5C 361.736,356.607 359.903,357.607 357.5,357.5C 357.5,355.5 357.5,353.5 357.5,351.5C 359.074,348.093 360.074,344.427 360.5,340.5C 362.036,335.891 363.37,331.224 364.5,326.5C 366.293,324.574 367.293,322.241 367.5,319.5C 367.733,317.938 368.4,316.605 369.5,315.5C 372.281,311.944 375.948,310.277 380.5,310.5 Z"/></g>
<g><path style="opacity:1" fill="#fcbd45" d="M 433.5,311.5 C 433.666,315.514 433.499,319.514 433,323.5C 428.441,333.442 424.941,343.775 422.5,354.5C 421.599,356.727 419.933,357.727 417.5,357.5C 417.077,356.735 416.743,355.902 416.5,355C 418.192,352.065 418.858,348.898 418.5,345.5C 421.852,340.806 423.519,335.472 423.5,329.5C 423.557,328.391 423.89,327.391 424.5,326.5C 425.924,324.485 426.59,322.152 426.5,319.5C 426.833,319.5 427.167,319.5 427.5,319.5C 428.434,318.432 428.768,317.099 428.5,315.5C 429.5,315.5 430.5,315.5 431.5,315.5C 431.157,313.517 431.824,312.183 433.5,311.5 Z"/></g>
<g><path style="opacity:1" fill="#457884" d="M 101.5,325.5 C 102.5,325.5 103.5,325.5 104.5,325.5C 104.649,326.552 104.483,327.552 104,328.5C 95.4838,333.933 94.6505,332.933 101.5,325.5 Z"/></g>
<g><path style="opacity:1" fill="#e7ca86" d="M 307.5,319.5 C 307.11,322.839 306.61,326.173 306,329.5C 305.292,330.381 304.458,331.047 303.5,331.5C 304.624,327.325 305.958,323.325 307.5,319.5 Z"/></g>
<g><path style="opacity:1" fill="#facf7e" d="M 380.5,311.5 C 381.15,311.804 381.817,312.137 382.5,312.5C 383.696,317.399 382.53,321.733 379,325.5C 378.677,331.476 376.677,336.809 373,341.5C 372.689,345.09 371.856,348.423 370.5,351.5C 369.521,354.625 369.187,357.958 369.5,361.5C 368.041,361.433 366.708,361.766 365.5,362.5C 365.808,360.076 365.474,357.743 364.5,355.5C 362.422,357.986 359.755,358.986 356.5,358.5C 356.198,355.941 356.532,353.607 357.5,351.5C 357.5,353.5 357.5,355.5 357.5,357.5C 359.903,357.607 361.736,356.607 363,354.5C 365.004,348.139 366.837,341.806 368.5,335.5C 371.782,329.155 373.949,322.489 375,315.5C 376.699,314.594 378.533,314.261 380.5,314.5C 380.5,313.5 380.5,312.5 380.5,311.5 Z"/></g>
<g><path style="opacity:1" fill="#f8c66c" d="M 189.5,328.5 C 189.342,332.841 188.342,336.841 186.5,340.5C 186.5,338.833 186.5,337.167 186.5,335.5C 186.98,332.922 187.98,330.588 189.5,328.5 Z"/></g>
<g><path style="opacity:1" fill="#f6cf82" d="M 423.5,329.5 C 423.519,335.472 421.852,340.806 418.5,345.5C 419.563,339.898 421.229,334.565 423.5,329.5 Z"/></g>
<g><path style="opacity:1" fill="#f8cb80" d="M 301.5,340.5 C 301.074,344.427 300.074,348.093 298.5,351.5C 298.126,347.353 299.126,343.686 301.5,340.5 Z"/></g>
<g><path style="opacity:1" fill="#f7d589" d="M 360.5,340.5 C 360.074,344.427 359.074,348.093 357.5,351.5C 357.517,347.466 358.517,343.799 360.5,340.5 Z"/></g>
<g><path style="opacity:1" fill="#e7e3c1" d="M 93.5,340.5 C 92.5,340.833 91.8333,341.5 91.5,342.5C 90.3951,343.6 89.0618,344.267 87.5,344.5C 87.38,345.586 86.7133,346.253 85.5,346.5C 83.853,345.722 82.5196,344.556 81.5,343C 84.4116,338.558 88.4116,336.058 93.5,335.5C 93.5,337.167 93.5,338.833 93.5,340.5 Z"/></g>
<g><path style="opacity:1" fill="#4d8184" d="M 87.5,344.5 C 85.3141,344.489 84.4808,343.489 85,341.5C 86.8864,338.758 89.3864,337.091 92.5,336.5C 92.6495,337.552 92.4828,338.552 92,339.5C 90.2927,341.037 88.7927,342.704 87.5,344.5 Z"/></g>
<g><path style="opacity:1" fill="#f9bc43" d="M 296.5,367.5 C 296.167,367.5 295.833,367.5 295.5,367.5C 295.777,362.114 296.444,356.781 297.5,351.5C 297.833,351.5 298.167,351.5 298.5,351.5C 300.074,348.093 301.074,344.427 301.5,340.5C 301.928,337.436 302.594,334.436 303.5,331.5C 304.458,331.047 305.292,330.381 306,329.5C 306.61,326.173 307.11,322.839 307.5,319.5C 308.167,319.5 308.833,319.5 309.5,319.5C 311.895,315.094 315.562,312.761 320.5,312.5C 320.5,313.5 320.5,314.5 320.5,315.5C 318.856,315.286 317.356,315.62 316,316.5C 313.9,319.701 312.067,323.034 310.5,326.5C 310.709,327.086 311.043,327.586 311.5,328C 307.889,341.61 303.889,355.11 299.5,368.5C 298.583,367.873 297.583,367.539 296.5,367.5 Z"/></g>
<g><path style="opacity:1" fill="#fbe4b6" d="M 186.5,335.5 C 186.5,337.167 186.5,338.833 186.5,340.5C 182.582,348.968 180.916,357.968 181.5,367.5C 180.732,366.737 180.232,365.737 180,364.5C 179.69,354.21 181.856,344.543 186.5,335.5 Z"/></g>
<g><path style="opacity:1" fill="#487d80" d="M 79.5,351.5 C 76.9392,353.371 74.4392,355.371 72,357.5C 70.4463,355.511 70.6129,353.511 72.5,351.5C 74.6282,350.043 76.9616,349.043 79.5,348.5C 79.5,349.5 79.5,350.5 79.5,351.5 Z"/></g>
<g><path style="opacity:1" fill="#fcbe48" d="M 207.5,287.5 C 200.398,311.216 193.564,335.216 187,359.5C 186.532,363.627 187.032,367.627 188.5,371.5C 189.5,371.5 190.5,371.5 191.5,371.5C 191.997,375.863 190.331,379.029 186.5,381C 169.49,381.833 152.49,381.666 135.5,380.5C 149.661,379.833 163.661,379.167 177.5,378.5C 178.873,378.657 180.207,378.49 181.5,378C 184.952,374.594 185.286,371.094 182.5,367.5C 182.167,367.5 181.833,367.5 181.5,367.5C 180.916,357.968 182.582,348.968 186.5,340.5C 188.342,336.841 189.342,332.841 189.5,328.5C 190.29,321.012 192.29,314.012 195.5,307.5C 198.541,302.703 199.874,297.37 199.5,291.5C 199.232,289.901 199.566,288.568 200.5,287.5C 202.641,282.409 204.975,277.409 207.5,272.5C 208.209,271.596 209.209,271.263 210.5,271.5C 212.479,270.188 214.145,268.521 215.5,266.5C 217.071,265.691 218.738,265.357 220.5,265.5C 220.657,266.873 220.49,268.207 220,269.5C 216.684,272.748 213.35,276.081 210,279.5C 208.409,281.927 207.575,284.593 207.5,287.5 Z"/></g>
<g><path style="opacity:1" fill="#f1e2ba" d="M 72.5,351.5 C 70.6129,353.511 70.4463,355.511 72,357.5C 74.4392,355.371 76.9392,353.371 79.5,351.5C 78.7577,353.426 77.7577,355.259 76.5,357C 72.8526,358.305 69.1859,358.805 65.5,358.5C 66.782,360.179 67.782,362.013 68.5,364C 67.9535,364.925 67.2868,365.758 66.5,366.5C 63.2815,365.146 60.2815,365.479 57.5,367.5C 56.5084,367.672 55.8417,367.338 55.5,366.5C 54.4138,366.38 53.7472,365.713 53.5,364.5C 55.2816,361.681 57.7816,359.681 61,358.5C 61.4561,357.256 60.9561,356.423 59.5,356C 60.9047,354.731 62.5714,354.231 64.5,354.5C 64.3505,353.448 64.5172,352.448 65,351.5C 67.4592,352.649 69.9592,352.649 72.5,351.5 Z"/></g>
<g><path style="opacity:1" fill="#fbe8c9" d="M 255.5,343.5 C 254.022,348.673 252.855,354.007 252,359.5C 249.391,361.746 247.557,364.413 246.5,367.5C 249.371,359.838 251.371,351.838 252.5,343.5C 253.5,343.5 254.5,343.5 255.5,343.5 Z"/></g>
<g><path style="opacity:1" fill="#fbe4b9" d="M 370.5,351.5 C 370.472,356.862 370.806,362.195 371.5,367.5C 371.167,367.5 370.833,367.5 370.5,367.5C 369.539,365.735 369.205,363.735 369.5,361.5C 369.187,357.958 369.521,354.625 370.5,351.5 Z"/></g>
<g><path style="opacity:1" fill="#f6ca76" d="M 418.5,345.5 C 418.858,348.898 418.192,352.065 416.5,355C 416.743,355.902 417.077,356.735 417.5,357.5C 416.833,357.5 416.167,357.5 415.5,357.5C 415.923,353.253 416.923,349.253 418.5,345.5 Z"/></g>
<g><path style="opacity:1" fill="#fdd996" d="M 431.5,378.5 C 433.317,374.237 434.984,369.904 436.5,365.5C 436.167,364.833 435.833,364.167 435.5,363.5C 434.5,364.833 433.5,366.167 432.5,367.5C 431.571,366.311 431.238,364.978 431.5,363.5C 435.752,357.869 438.085,358.703 438.5,366C 436.66,369.574 435.16,373.407 434,377.5C 433.329,378.252 432.496,378.586 431.5,378.5 Z"/></g>
<g><path style="opacity:1" fill="#447b7d" d="M 55.5,366.5 C 55.33,365.178 55.6634,364.011 56.5,363C 58.7463,361.961 60.913,360.794 63,359.5C 64.6169,360.536 64.7836,361.703 63.5,363C 60.89,364.481 58.2234,365.648 55.5,366.5 Z"/></g>
<g><path style="opacity:1" fill="#fbe4b7" d="M 297.5,351.5 C 296.444,356.781 295.777,362.114 295.5,367.5C 294.223,366.306 293.556,364.64 293.5,362.5C 293.276,358.164 294.609,354.498 297.5,351.5 Z"/></g>
<g><path style="opacity:1" fill="#fbe8c1" d="M 422.5,354.5 C 423.5,354.5 424.5,354.5 425.5,354.5C 425.628,358.881 425.295,363.215 424.5,367.5C 423.222,367.782 422.222,368.449 421.5,369.5C 422.03,365.336 423.03,361.336 424.5,357.5C 422.325,357.682 420.325,358.349 418.5,359.5C 416.962,359.547 415.962,358.88 415.5,357.5C 416.167,357.5 416.833,357.5 417.5,357.5C 419.933,357.727 421.599,356.727 422.5,354.5 Z"/></g>
<g><path style="opacity:1" fill="#94a99a" d="M 47.5,367.5 C 50.3298,365.965 51.6631,366.965 51.5,370.5C 50.1667,370.5 48.8333,370.5 47.5,370.5C 48.0906,369.849 48.7573,369.182 49.5,368.5C 49.0431,367.702 48.3764,367.369 47.5,367.5 Z"/></g>
<g><path style="opacity:1" fill="#447885" d="M 47.5,367.5 C 48.3764,367.369 49.0431,367.702 49.5,368.5C 48.7573,369.182 48.0906,369.849 47.5,370.5C 45.9652,371.788 44.2985,371.788 42.5,370.5C 43.6885,368.738 45.3551,367.738 47.5,367.5 Z"/></g>
<g><path style="opacity:1" fill="#fddfa6" d="M 363.5,367.5 C 361.218,372.781 357.218,375.781 351.5,376.5C 356.062,374.274 360.062,371.274 363.5,367.5 Z"/></g>
<g><path style="opacity:1" fill="#8baba0" d="M 31.5,372.5 C 33.2646,371.539 35.2646,371.205 37.5,371.5C 37.7373,372.791 37.404,373.791 36.5,374.5C 35.4479,372.744 33.7812,372.077 31.5,372.5 Z"/></g>
<g><path style="opacity:1" fill="#f9cf7e" d="M 370.5,367.5 C 370.833,367.5 371.167,367.5 371.5,367.5C 371.014,370.755 372.014,373.422 374.5,375.5C 372.909,377.633 370.909,379.299 368.5,380.5C 367.614,381.325 367.281,382.325 367.5,383.5C 357.043,386.143 346.376,387.143 335.5,386.5C 335.5,386.167 335.5,385.833 335.5,385.5C 335.5,384.833 335.5,384.167 335.5,383.5C 342.197,383.452 348.864,382.952 355.5,382C 360.767,379.914 365.433,376.914 369.5,373C 370.406,371.301 370.739,369.467 370.5,367.5 Z"/></g>
<g><path style="opacity:1" fill="#fddca1" d="M 421.5,369.5 C 420.526,372.496 418.526,374.163 415.5,374.5C 417.297,372.551 419.297,370.884 421.5,369.5 Z"/></g>
<g><path style="opacity:1" fill="#4a7d7e" d="M 31.5,372.5 C 33.7812,372.077 35.4479,372.744 36.5,374.5C 34.597,374.796 32.9303,375.463 31.5,376.5C 30.209,376.737 29.209,376.404 28.5,375.5C 28.5,374.5 28.5,373.5 28.5,372.5C 29.5,372.5 30.5,372.5 31.5,372.5 Z"/></g>
<g><path style="opacity:1" fill="#fce6be" d="M 309.5,351.5 C 310.167,351.5 310.833,351.5 311.5,351.5C 311.334,356.844 311.501,362.177 312,367.5C 312.45,369.519 313.283,371.352 314.5,373C 317.588,375.071 320.921,376.738 324.5,378C 333.516,378.599 342.516,378.432 351.5,377.5C 348.997,378.371 346.33,379.037 343.5,379.5C 335.123,379.438 326.957,379.438 319,379.5C 318,378.833 317,378.167 316,377.5C 315.383,378.449 315.549,379.282 316.5,380C 319.956,379.907 322.956,380.907 325.5,383C 321.179,383.499 316.846,383.666 312.5,383.5C 312.318,381.409 312.652,379.409 313.5,377.5C 312.855,376.354 312.022,375.354 311,374.5C 309.795,366.881 309.295,359.214 309.5,351.5 Z"/></g>
<g><path style="opacity:1" fill="#487d85" d="M 15.5,374.5 C 18.1667,374.5 20.8333,374.5 23.5,374.5C 23.5,375.5 23.5,376.5 23.5,377.5C 22.8333,377.5 22.1667,377.5 21.5,377.5C 19.139,377.674 16.8056,378.007 14.5,378.5C 14.4326,377.041 14.7659,375.708 15.5,374.5 Z"/></g>
<g><path style="opacity:1" fill="#4a7c7f" d="M -0.5,375.5 C 2.5,375.5 5.5,375.5 8.5,375.5C 8.5,376.5 8.5,377.5 8.5,378.5C 5.5,378.5 2.5,378.5 -0.5,378.5C -0.5,377.5 -0.5,376.5 -0.5,375.5 Z"/></g>
<g><path style="opacity:1" fill="#f5d087" d="M 415.5,375.5 C 412.4,378.21 408.733,379.543 404.5,379.5C 404.5,379.167 404.5,378.833 404.5,378.5C 408.099,377.301 411.765,376.301 415.5,375.5 Z"/></g>
<g><path style="opacity:1" fill="#e7e0be" d="M 15.5,374.5 C 14.7659,375.708 14.4326,377.041 14.5,378.5C 16.8056,378.007 19.139,377.674 21.5,377.5C 19.3498,378.67 17.0164,379.67 14.5,380.5C 12.8273,378.914 10.8273,378.247 8.5,378.5C 8.5,377.5 8.5,376.5 8.5,375.5C 10.9029,375.552 13.2362,375.219 15.5,374.5 Z"/></g>
<g><path style="opacity:1" fill="#fbbe48" d="M 393.5,383.5 C 391.577,383.205 389.91,382.372 388.5,381C 393.882,380.735 399.215,380.235 404.5,379.5C 408.733,379.543 412.4,378.21 415.5,375.5C 415.5,375.167 415.5,374.833 415.5,374.5C 418.526,374.163 420.526,372.496 421.5,369.5C 422.222,368.449 423.222,367.782 424.5,367.5C 425.933,364.962 427.266,362.295 428.5,359.5C 429.745,363.214 429.579,366.88 428,370.5C 419.036,381.132 407.536,385.465 393.5,383.5 Z"/></g>
<g><path style="opacity:1" fill="#fdd080" d="M 207.5,287.5 C 207.5,288.5 207.5,289.5 207.5,290.5C 209.833,290.5 212.167,290.5 214.5,290.5C 208.842,312.434 202.176,334.1 194.5,355.5C 194.025,359.153 193.691,362.82 193.5,366.5C 194.47,372.117 195.137,377.784 195.5,383.5C 193.517,383.157 192.183,383.824 191.5,385.5C 173.164,385.667 154.83,385.5 136.5,385C 135.07,383.114 133.403,381.447 131.5,380C 132.5,379.667 133.5,379.333 134.5,379C 148.829,378.5 163.163,378.333 177.5,378.5C 163.661,379.167 149.661,379.833 135.5,380.5C 152.49,381.666 169.49,381.833 186.5,381C 190.331,379.029 191.997,375.863 191.5,371.5C 190.5,371.5 189.5,371.5 188.5,371.5C 187.032,367.627 186.532,363.627 187,359.5C 193.564,335.216 200.398,311.216 207.5,287.5 Z"/></g>
<g><path style="opacity:1" fill="#fabe47" d="M 305.5,374.5 C 305.5,376.167 305.5,377.833 305.5,379.5C 303.571,379.231 301.905,379.731 300.5,381C 284.156,381.833 267.823,381.666 251.5,380.5C 265.994,379.833 280.328,379.167 294.5,378.5C 295.167,378.5 295.5,378.167 295.5,377.5C 297.38,377.771 298.713,377.104 299.5,375.5C 301.048,375.179 301.715,374.179 301.5,372.5C 303.483,372.157 304.817,372.824 305.5,374.5 Z"/></g>
<g><path style="opacity:1" fill="#fbbf4c" d="M 369.5,361.5 C 369.205,363.735 369.539,365.735 370.5,367.5C 370.739,369.467 370.406,371.301 369.5,373C 365.433,376.914 360.767,379.914 355.5,382C 348.864,382.952 342.197,383.452 335.5,383.5C 333.502,382.852 331.502,382.019 329.5,381C 334.351,380.826 339.018,380.326 343.5,379.5C 346.33,379.037 348.997,378.371 351.5,377.5C 351.5,377.167 351.5,376.833 351.5,376.5C 357.218,375.781 361.218,372.781 363.5,367.5C 364.309,365.972 364.976,364.306 365.5,362.5C 366.708,361.766 368.041,361.433 369.5,361.5 Z"/></g>
<g><path style="opacity:1" fill="#fccf79" d="M 431.5,298.5 C 434.297,298.967 435.631,300.633 435.5,303.5C 437.124,303.36 438.29,304.027 439,305.5C 440.217,311.101 440.717,316.768 440.5,322.5C 438.882,326.689 437.882,331.022 437.5,335.5C 436.5,335.5 435.5,335.5 434.5,335.5C 432.676,342.325 430.676,349.159 428.5,356C 431.04,357.813 432.04,360.313 431.5,363.5C 431.238,364.978 431.571,366.311 432.5,367.5C 433.5,366.167 434.5,364.833 435.5,363.5C 435.833,364.167 436.167,364.833 436.5,365.5C 434.984,369.904 433.317,374.237 431.5,378.5C 428.758,380.05 426.091,381.883 423.5,384C 413.977,386.24 404.31,387.073 394.5,386.5C 394.443,385.391 394.11,384.391 393.5,383.5C 407.536,385.465 419.036,381.132 428,370.5C 429.579,366.88 429.745,363.214 428.5,359.5C 427.266,362.295 425.933,364.962 424.5,367.5C 425.295,363.215 425.628,358.881 425.5,354.5C 424.5,354.5 423.5,354.5 422.5,354.5C 424.941,343.775 428.441,333.442 433,323.5C 433.499,319.514 433.666,315.514 433.5,311.5C 436.022,309.998 436.022,308.665 433.5,307.5C 433.71,304.248 433.044,301.248 431.5,298.5 Z"/></g>
<g><path style="opacity:1" fill="#facb6f" d="M 305.5,374.5 C 306.622,376.288 306.789,378.288 306,380.5C 305.25,381.126 304.416,381.626 303.5,382C 298.447,382.217 293.447,382.717 288.5,383.5C 275.883,382.519 263.217,382.186 250.5,382.5C 249.602,381.842 248.602,381.176 247.5,380.5C 247.709,379.914 248.043,379.414 248.5,379C 263.83,378.5 279.163,378.333 294.5,378.5C 280.328,379.167 265.994,379.833 251.5,380.5C 267.823,381.666 284.156,381.833 300.5,381C 301.905,379.731 303.571,379.231 305.5,379.5C 305.5,377.833 305.5,376.167 305.5,374.5 Z"/></g>
<g><path style="opacity:1" fill="#fddea3" d="M 309.5,351.5 C 309.295,359.214 309.795,366.881 311,374.5C 312.022,375.354 312.855,376.354 313.5,377.5C 312.652,379.409 312.318,381.409 312.5,383.5C 316.846,383.666 321.179,383.499 325.5,383C 322.956,380.907 319.956,379.907 316.5,380C 315.549,379.282 315.383,378.449 316,377.5C 317,378.167 318,378.833 319,379.5C 326.957,379.438 335.123,379.438 343.5,379.5C 339.018,380.326 334.351,380.826 329.5,381C 331.502,382.019 333.502,382.852 335.5,383.5C 335.5,384.167 335.5,384.833 335.5,385.5C 326.833,385.5 318.167,385.5 309.5,385.5C 311.367,383.188 311.867,380.521 311,377.5C 308.071,376.073 306.571,373.74 306.5,370.5C 307.047,363.954 308.047,357.621 309.5,351.5 Z"/></g>
<g><path style="opacity:1" fill="#82915f" d="M 358.5,380.5 C 360.346,380.222 361.68,380.889 362.5,382.5C 360.833,383.833 359.167,383.833 357.5,382.5C 357.863,381.817 358.196,381.15 358.5,380.5 Z"/></g>
<g><path style="opacity:1" fill="#fce1af" d="M 371.5,367.5 C 374.535,371.858 378.535,375.191 383.5,377.5C 390.468,378.497 397.468,378.83 404.5,378.5C 404.5,378.833 404.5,379.167 404.5,379.5C 399.215,380.235 393.882,380.735 388.5,381C 389.91,382.372 391.577,383.205 393.5,383.5C 394.11,384.391 394.443,385.391 394.5,386.5C 374.828,386.563 355.161,386.897 335.5,387.5C 335.5,387.167 335.5,386.833 335.5,386.5C 346.376,387.143 357.043,386.143 367.5,383.5C 367.281,382.325 367.614,381.325 368.5,380.5C 370.909,379.299 372.909,377.633 374.5,375.5C 372.014,373.422 371.014,370.755 371.5,367.5 Z"/></g>
<g><path style="opacity:1" fill="#fce7c6" d="M 191.5,385.5 C 230.662,386.731 269.662,386.731 308.5,385.5C 308.833,385.5 309.167,385.5 309.5,385.5C 318.167,385.5 326.833,385.5 335.5,385.5C 335.5,385.833 335.5,386.167 335.5,386.5C 335.5,386.833 335.5,387.167 335.5,387.5C 266.167,387.5 196.833,387.5 127.5,387.5C 148.833,386.833 170.167,386.167 191.5,385.5 Z"/></g>
<g><path style="opacity:1" fill="#faf0df" d="M 394.5,386.5 C 418.994,387.498 443.661,387.831 468.5,387.5C 468.5,392.833 468.5,398.167 468.5,403.5C 360.167,403.5 251.833,403.5 143.5,403.5C 251.332,402.501 359.332,402.167 467.5,402.5C 467.5,397.833 467.5,393.167 467.5,388.5C 355.48,388.81 243.48,388.81 131.5,388.5C 129.548,392.574 130.215,396.074 133.5,399C 132.167,399.333 130.833,399.667 129.5,400C 131.887,401.892 134.553,403.058 137.5,403.5C 134.214,404.207 130.881,404.54 127.5,404.5C 127.5,398.833 127.5,393.167 127.5,387.5C 196.833,387.5 266.167,387.5 335.5,387.5C 355.161,386.897 374.828,386.563 394.5,386.5 Z"/></g>
<g><path style="opacity:1" fill="#f6f1e9" d="M 143.5,403.5 C 141.5,403.5 139.5,403.5 137.5,403.5C 134.553,403.058 131.887,401.892 129.5,400C 130.833,399.667 132.167,399.333 133.5,399C 130.215,396.074 129.548,392.574 131.5,388.5C 243.48,388.81 355.48,388.81 467.5,388.5C 467.5,393.167 467.5,397.833 467.5,402.5C 359.332,402.167 251.332,402.501 143.5,403.5 Z"/></g>
<g><path style="opacity:1" fill="#f6bc50" d="M 465.5,408.5 C 411.837,407.167 357.837,406.5 303.5,406.5C 249.163,406.5 195.163,407.167 141.5,408.5C 139.167,408.5 136.833,408.5 134.5,408.5C 134.5,407.5 134.5,406.5 134.5,405.5C 246.237,405.831 357.904,405.498 469.5,404.5C 470.319,401.695 470.819,398.695 471,395.5C 472,394.167 473,394.167 474,395.5C 474.667,399.5 474.667,403.5 474,407.5C 471.281,408.444 468.448,408.777 465.5,408.5 Z"/></g>
<g><path style="opacity:1" fill="#fec963" d="M 475.5,395.5 C 475.8,400.099 475.467,404.599 474.5,409C 363.333,409.833 252.333,409.666 141.5,408.5C 249.5,408.5 357.5,408.5 465.5,408.5C 468.448,408.777 471.281,408.444 474,407.5C 474.667,403.5 474.667,399.5 474,395.5C 473,394.167 472,394.167 471,395.5C 470.819,398.695 470.319,401.695 469.5,404.5C 469.234,400.429 469.567,396.429 470.5,392.5C 473.469,391.155 475.136,392.155 475.5,395.5 Z"/></g>
<g><path style="opacity:1" fill="#fed17f" d="M 475.5,395.5 C 476.833,395.5 478.167,395.5 479.5,395.5C 480.702,399.048 481.369,402.715 481.5,406.5C 480.691,408.028 480.024,409.694 479.5,411.5C 366.506,410.533 253.506,410.2 140.5,410.5C 138.236,409.781 135.903,409.448 133.5,409.5C 133.232,407.901 133.566,406.568 134.5,405.5C 134.5,406.5 134.5,407.5 134.5,408.5C 136.833,408.5 139.167,408.5 141.5,408.5C 252.333,409.666 363.333,409.833 474.5,409C 475.467,404.599 475.8,400.099 475.5,395.5 Z"/></g>
<g><path style="opacity:1" fill="#febe3d" d="M 465.5,408.5 C 357.5,408.5 249.5,408.5 141.5,408.5C 195.163,407.167 249.163,406.5 303.5,406.5C 357.837,406.5 411.837,407.167 465.5,408.5 Z"/></g>
<g><path style="opacity:1" fill="#f8d186" d="M 140.5,410.5 C 253.506,410.2 366.506,410.533 479.5,411.5C 367.001,412.5 254.335,412.833 141.5,412.5C 140.662,412.158 140.328,411.492 140.5,410.5 Z"/></g>
<g><path style="opacity:1" fill="#fedd97" d="M 481.5,406.5 C 481.817,409.572 481.484,412.572 480.5,415.5C 476.759,413.669 472.759,413.003 468.5,413.5C 359.5,413.5 250.5,413.5 141.5,413.5C 141.5,413.167 141.5,412.833 141.5,412.5C 254.335,412.833 367.001,412.5 479.5,411.5C 480.024,409.694 480.691,408.028 481.5,406.5 Z"/></g>
<g><path style="opacity:1" fill="#fee4aa" d="M 141.5,413.5 C 250.5,413.5 359.5,413.5 468.5,413.5C 468.53,414.497 468.03,415.164 467,415.5C 358.958,414.168 250.958,414.168 143,415.5C 142.283,414.956 141.783,414.289 141.5,413.5 Z"/></g>
</svg>
